<svg width="44" height="44" viewBox="0 0 44 44" fill="none" xmlns="http://www.w3.org/2000/svg">
<g filter="url(#filter0_d_203_4028)">
<rect x="6" y="2" width="32" height="32" rx="16" fill="#ECECEC"/>
<path d="M16.3999 25.2C19.7679 21.3992 23.5527 16.3584 29.1999 20.1384M25.9999 12C26.3927 11.5952 27.4399 10 27.9999 10M27.9999 10C28.5599 10 29.6071 11.5952 29.9999 12M27.9999 10V16.4" stroke="black" stroke-width="1.2" stroke-linecap="round" stroke-linejoin="round"/>
<path d="M29.2 18.7998C29.1984 22.1174 29.1576 23.8158 28.0872 24.887C26.9736 25.9998 25.1832 25.9998 21.6 25.9998C18.0176 25.9998 16.2256 25.9998 15.1128 24.887C14 23.7742 14 21.983 14 18.3998C14 14.8174 14 13.0254 15.1128 11.9126C16.2256 10.7998 18.0168 10.7998 21.6 10.7998H23.6" stroke="black" stroke-width="1.2" stroke-linecap="round" stroke-linejoin="round"/>
</g>
<defs>
<filter id="filter0_d_203_4028" x="0" y="0" width="44" height="44" filterUnits="userSpaceOnUse" color-interpolation-filters="sRGB">
<feFlood flood-opacity="0" result="BackgroundImageFix"/>
<feColorMatrix in="SourceAlpha" type="matrix" values="0 0 0 0 0 0 0 0 0 0 0 0 0 0 0 0 0 0 127 0" result="hardAlpha"/>
<feOffset dy="4"/>
<feGaussianBlur stdDeviation="3"/>
<feComposite in2="hardAlpha" operator="out"/>
<feColorMatrix type="matrix" values="0 0 0 0 0 0 0 0 0 0 0 0 0 0 0 0 0 0 0.06 0"/>
<feBlend mode="normal" in2="BackgroundImageFix" result="effect1_dropShadow_203_4028"/>
<feBlend mode="normal" in="SourceGraphic" in2="effect1_dropShadow_203_4028" result="shape"/>
</filter>
</defs>
</svg>
