<svg width="24" height="24" viewBox="0 0 24 24" fill="none" xmlns="http://www.w3.org/2000/svg">
<path d="M20 10C20 8.6 20 7.9 19.727 7.365C19.4875 6.89451 19.1053 6.51189 18.635 6.272C18.1 6 17.4 6 16 6H8C6.6 6 5.9 6 5.365 6.272C4.89435 6.51172 4.51172 6.89435 4.272 7.365C4 7.9 4 8.6 4 10M18 6C18 4.114 18 3.172 17.414 2.586C16.828 2 15.886 2 14 2H10C8.114 2 7.172 2 6.586 2.586C6 3.172 6 4.114 6 6M2 16C2 13.661 2 12.492 2.536 11.638C2.81596 11.1929 3.19262 10.8166 3.638 10.537C4.492 10 5.66 10 8 10H16C18.339 10 19.508 10 20.362 10.537C20.8073 10.8163 21.1839 11.1922 21.464 11.637C22 12.493 22 13.662 22 16C22 18.338 22 19.508 21.463 20.362C21.1837 20.8073 20.8078 21.1839 20.363 21.464C19.507 22 18.338 22 16 22H8C5.661 22 4.492 22 3.638 21.463C3.19273 21.1837 2.81608 20.8078 2.536 20.363C2 19.507 2 18.338 2 16Z" stroke="black" stroke-width="1.5" stroke-linecap="round" stroke-linejoin="round"/>
<path d="M15 14C15 14.5304 14.7893 15.0391 14.4142 15.4142C14.0391 15.7893 13.5304 16 13 16H11C10.4696 16 9.96086 15.7893 9.58579 15.4142C9.21071 15.0391 9 14.5304 9 14" stroke="black" stroke-width="1.5" stroke-linecap="round" stroke-linejoin="round"/>
</svg>
