<svg width="24" height="24" viewBox="0 0 24 24" fill="none" xmlns="http://www.w3.org/2000/svg">
<path d="M7.01402 16.003H11.014M7.01402 11.005H15.014M10.014 22H11.014M7.51002 22C6.34002 21.975 5.54002 21.9 4.76402 21.675C3.71402 21.4 2.94902 20.475 2.72402 19.176C2.43902 17.952 2.53902 14.929 2.51402 11.33C2.51602 8.53904 2.38902 5.85804 2.83902 4.33404C3.11402 3.83404 3.33902 2.01004 7.06402 2.03404C7.68902 2.01004 14.314 1.96004 15.364 2.06004C18.864 2.13504 19.214 3.93404 19.414 5.63304C19.541 6.88304 19.514 8.88104 19.514 11.005M7.01402 2.01004C7.31402 3.63404 7.28902 4.68404 8.38902 4.93304C8.86402 5.00804 9.94902 5.00604 11.114 5.00804C12.154 5.01004 13.214 5.02004 13.689 4.90804C14.864 4.63404 14.739 3.18404 15.039 2.01004M18.279 14.379C16.904 15.779 14.256 18.277 14.256 18.452C14.043 18.749 13.856 19.352 13.732 20.202C13.575 20.989 13.387 21.675 13.607 21.875C13.827 22.075 14.654 21.907 15.53 21.725C16.23 21.65 16.88 21.4 17.204 21.151C17.679 20.731 20.902 17.477 21.276 17.053C21.551 16.678 21.576 15.978 21.336 15.553C21.202 15.253 20.352 14.453 20.077 14.229C19.8005 14.0585 19.4766 13.981 19.1528 14.008C18.8291 14.035 18.5235 14.1651 18.279 14.379Z" stroke="black" stroke-width="1.5" stroke-linecap="round" stroke-linejoin="round"/>
</svg>
