<svg width="16" height="16" viewBox="0 0 16 16" fill="none" xmlns="http://www.w3.org/2000/svg">
<path d="M4.67605 10.6687H7.34272M4.67605 7.33665H10.0094M6.67605 14.6667H7.34272M5.00672 14.6667C4.22672 14.65 3.69339 14.6 3.17605 14.45C2.47605 14.2667 1.96605 13.65 1.81605 12.784C1.62605 11.968 1.69272 9.95265 1.67605 7.55332C1.67739 5.69265 1.59272 3.90532 1.89272 2.88932C2.07605 2.55599 2.22605 1.33999 4.70939 1.35599C5.12605 1.33999 9.54272 1.30665 10.2427 1.37332C12.5761 1.42332 12.8094 2.62265 12.9427 3.75532C13.0274 4.58865 13.0094 5.92065 13.0094 7.33665M4.67605 1.33999C4.87605 2.42265 4.85939 3.12265 5.59272 3.28865C5.90939 3.33865 6.63272 3.33732 7.40939 3.33865C8.10272 3.33999 8.80939 3.34665 9.12605 3.27199C9.90939 3.08932 9.82605 2.12265 10.0261 1.33999M12.1861 9.58599C11.2694 10.5193 9.50405 12.1847 9.50405 12.3013C9.36205 12.4993 9.23739 12.9013 9.15472 13.468C9.05005 13.9927 8.92472 14.45 9.07139 14.5833C9.21805 14.7167 9.76939 14.6047 10.3534 14.4833C10.8201 14.4333 11.2534 14.2667 11.4694 14.1007C11.7861 13.8207 13.9347 11.6513 14.1841 11.3687C14.3674 11.1187 14.3841 10.652 14.2241 10.3687C14.1347 10.1687 13.5681 9.63532 13.3847 9.48599C13.2004 9.37229 12.9844 9.32066 12.7686 9.33866C12.5528 9.35665 12.349 9.44333 12.1861 9.58599Z" stroke="#0B75FF" stroke-linecap="round" stroke-linejoin="round"/>
</svg>
