<svg width="22" height="18" viewBox="0 0 22 18" fill="none" xmlns="http://www.w3.org/2000/svg">
<g clip-path="url(#clip0_3640_2805)">
<path d="M16.3181 16.159C16.5351 16.159 16.7432 16.0728 16.8967 15.9194C17.0501 15.7659 17.1363 15.5578 17.1363 15.3408V14.3214C17.1396 12.0255 13.8849 10.2272 10.5909 10.2272C7.29686 10.2272 4.04541 12.0255 4.04541 14.3214V15.3408C4.04541 15.5578 4.13161 15.7659 4.28505 15.9194C4.43849 16.0728 4.6466 16.159 4.86359 16.159H16.3181ZM13.5396 4.78955C13.5396 5.17678 13.4633 5.56022 13.3151 5.91798C13.1669 6.27573 12.9497 6.6008 12.6759 6.87461C12.4021 7.14843 12.0771 7.36563 11.7193 7.51382C11.3615 7.662 10.9781 7.73827 10.5909 7.73827C10.2036 7.73827 9.82019 7.662 9.46244 7.51382C9.10468 7.36563 8.77961 7.14843 8.5058 6.87461C8.23198 6.6008 8.01478 6.27573 7.8666 5.91798C7.71841 5.56022 7.64214 5.17678 7.64214 4.78955C7.64214 4.0075 7.95281 3.25748 8.5058 2.70448C9.05879 2.15149 9.80881 1.84082 10.5909 1.84082C11.3729 1.84082 12.1229 2.15149 12.6759 2.70448C13.2289 3.25748 13.5396 4.0075 13.5396 4.78955Z" stroke="#0B75FF" stroke-width="1.22727" stroke-linecap="round" stroke-linejoin="round"/>
<path d="M18.0664 4.85698V0.535955H18.9261V4.85698H18.0664ZM16.3374 3.12473V2.265H20.6584V3.12473H16.3374Z" fill="#0B75FF"/>
</g>
<defs>
<clipPath id="clip0_3640_2805">
<rect width="20.4545" height="18" fill="white" transform="translate(0.772705)"/>
</clipPath>
</defs>
</svg>
