<svg width="35" height="34" viewBox="0 0 35 34" fill="none" xmlns="http://www.w3.org/2000/svg">
<path d="M23.9444 9.87328L22.1767 7.08023C21.8042 6.64594 21.2935 6.375 20.7211 6.375H14.6117C14.0393 6.375 13.5286 6.64594 13.1561 7.08023L11.3883 9.87328C11.0158 10.3082 10.5357 10.625 9.96326 10.625H5.97888C5.4153 10.625 4.87479 10.8489 4.47628 11.2474C4.07777 11.6459 3.85388 12.1864 3.85388 12.75V25.5C3.85388 26.0636 4.07777 26.6041 4.47628 27.0026C4.87479 27.4011 5.4153 27.625 5.97888 27.625H29.3539C29.9175 27.625 30.458 27.4011 30.8565 27.0026C31.255 26.6041 31.4789 26.0636 31.4789 25.5V12.75C31.4789 12.1864 31.255 11.6459 30.8565 11.2474C30.458 10.8489 29.9175 10.625 29.3539 10.625H25.4359C24.8615 10.625 24.317 10.3082 23.9444 9.87328Z" stroke="#9C9791" stroke-width="1.33333" stroke-linecap="round" stroke-linejoin="round"/>
<path d="M17.6667 23.375C20.6008 23.375 22.9792 20.9965 22.9792 18.0625C22.9792 15.1285 20.6008 12.75 17.6667 12.75C14.7327 12.75 12.3542 15.1285 12.3542 18.0625C12.3542 20.9965 14.7327 23.375 17.6667 23.375Z" stroke="#9C9791" stroke-width="1.33333" stroke-miterlimit="10"/>
<path d="M8.90112 10.4922V9.03125H7.30737V10.4922" stroke="#9C9791" stroke-width="1.33333" stroke-linecap="round" stroke-linejoin="round"/>
</svg>
