<svg width="15" height="16" viewBox="0 0 15 16" fill="none" xmlns="http://www.w3.org/2000/svg">
<path d="M7.50342 14.6234L7.49562 14.6248L7.44533 14.6496L7.43117 14.6524L7.42125 14.6496L7.37096 14.6248C7.3634 14.6225 7.35773 14.6236 7.35396 14.6284L7.35112 14.6354L7.33908 14.9386L7.34262 14.9528L7.34971 14.962L7.42337 15.0144L7.434 15.0172L7.4425 15.0144L7.51617 14.962L7.52467 14.9507L7.5275 14.9386L7.51546 14.6362C7.51357 14.6286 7.50955 14.6243 7.50342 14.6234ZM7.69112 14.5434L7.68192 14.5448L7.55087 14.6107L7.54379 14.6177L7.54167 14.6255L7.55442 14.9301L7.55796 14.9386L7.56362 14.9436L7.706 15.0094C7.71497 15.0118 7.72182 15.0099 7.72654 15.0038L7.72937 14.9939L7.70529 14.5589C7.70293 14.5504 7.69821 14.5452 7.69112 14.5434ZM7.18466 14.5448C7.18154 14.5429 7.17781 14.5423 7.17425 14.5431C7.17069 14.5439 7.16757 14.546 7.16554 14.549L7.16129 14.5589L7.13721 14.9939C7.13768 15.0024 7.14169 15.008 7.14925 15.0109L7.15987 15.0094L7.30225 14.9436L7.30933 14.9379L7.31217 14.9301L7.32421 14.6255L7.32208 14.617L7.315 14.6099L7.18466 14.5448Z" fill="#565555"/>
<path d="M1.41699 1.08203H12.75C13.0555 1.08203 13.3497 1.18897 13.584 1.38086L13.6807 1.46777C13.9276 1.7147 14.0664 2.05021 14.0664 2.39941V3.81543C14.0664 3.97677 14.0028 4.13201 13.8887 4.24609C13.7746 4.36018 13.6193 4.42383 13.458 4.42383C13.2969 4.42374 13.1423 4.36 13.0283 4.24609C12.9142 4.13201 12.8496 3.97677 12.8496 3.81543V2.29883H1.31641V10.999H7.08301C7.24435 10.999 7.39959 11.0636 7.51367 11.1777C7.62755 11.2918 7.69141 11.4462 7.69141 11.6074C7.69141 11.7686 7.62755 11.9231 7.51367 12.0371C7.39959 12.1512 7.24435 12.2158 7.08301 12.2158H1.41699C1.06779 12.2158 0.732274 12.077 0.485352 11.8301C0.238607 11.5832 0.0996954 11.2484 0.0996094 10.8994V2.39941C0.0996094 2.09376 0.206343 1.79879 0.398438 1.56445L0.485352 1.46777C0.701315 1.25181 0.984864 1.11887 1.28613 1.08887L1.41699 1.08203ZM12.0166 10.7129C11.5685 10.8286 11.0985 10.8285 10.6504 10.7129L10.5254 10.6807V12.04L10.6699 11.9678L11.0615 11.7725V11.7715C11.1458 11.7294 11.2388 11.7081 11.333 11.708C11.4037 11.708 11.4739 11.7202 11.54 11.7441L11.6055 11.7715V11.7725L11.9971 11.9678L12.1416 12.04V10.6807L12.0166 10.7129ZM11.333 6.54883C10.9309 6.54891 10.5451 6.70881 10.2607 6.99316C9.97639 7.27752 9.81649 7.6633 9.81641 8.06543C9.81641 8.4175 9.9389 8.75742 10.1602 9.02734L10.2607 9.13867C10.5451 9.42292 10.931 9.58195 11.333 9.58203C11.685 9.58203 12.025 9.46043 12.2949 9.23926L12.4062 9.13867C12.6907 8.85424 12.8496 8.46767 12.8496 8.06543C12.8495 7.66338 12.6905 7.2775 12.4062 6.99316C12.1218 6.70873 11.7353 6.54883 11.333 6.54883ZM4.95801 7.45703C5.0743 7.45716 5.1874 7.49112 5.28418 7.55273L5.375 7.62305C5.45949 7.70281 5.51865 7.80492 5.54688 7.91602L5.56445 8.03027C5.57124 8.14635 5.54499 8.26107 5.48926 8.36133L5.42383 8.45605C5.32514 8.57395 5.18566 8.64982 5.0332 8.66895L4.95215 8.67383H3.54199L3.42676 8.66309C3.31423 8.64129 3.20948 8.58757 3.125 8.50781C3.04039 8.42791 2.98128 8.32615 2.95312 8.21484L2.93555 8.10156C2.92874 7.98553 2.95508 7.87075 3.01074 7.77051L3.07617 7.67578C3.17569 7.55688 3.31674 7.48023 3.4707 7.46191L3.46973 7.46094L3.54785 7.45703H4.95801ZM3.54199 4.62402H7.79199C7.95321 4.62411 8.10767 4.68873 8.22168 4.80273C8.33566 4.9168 8.40039 5.07116 8.40039 5.23242C8.40039 5.39369 8.33566 5.54804 8.22168 5.66211C8.10767 5.77612 7.95321 5.84073 7.79199 5.84082H3.54199C3.38065 5.84082 3.22541 5.77619 3.11133 5.66211C2.99745 5.54806 2.93359 5.39361 2.93359 5.23242C2.93359 5.07124 2.99745 4.91679 3.11133 4.80273C3.22541 4.68865 3.38065 4.62402 3.54199 4.62402ZM9.30859 9.90234L9.2832 9.87402C8.97874 9.52886 8.76762 9.11298 8.66699 8.66602L8.62988 8.47266C8.56136 8.01739 8.60951 7.55322 8.76758 7.12305L8.8418 6.94141C9.03124 6.52173 9.32324 6.15746 9.68945 5.88184L9.85059 5.76953C10.2372 5.51988 10.6797 5.37278 11.1367 5.33984L11.333 5.33203C11.7934 5.33201 12.2456 5.44863 12.6475 5.66895L12.8164 5.76953C13.203 6.01917 13.5193 6.36182 13.7373 6.76465L13.8252 6.94141C14.0145 7.36092 14.0941 7.82056 14.0586 8.27734L14.0361 8.47266C13.9578 8.99276 13.7317 9.47956 13.3838 9.87402L13.3584 9.90234V12.9092L13.3525 12.9961C13.3452 13.053 13.3309 13.1088 13.3096 13.1621L13.2725 13.2402C13.2161 13.3413 13.1346 13.4264 13.0361 13.4873C12.9378 13.5481 12.8255 13.5826 12.71 13.5879L12.623 13.5859C12.5658 13.5812 12.5093 13.5697 12.4551 13.5508L12.375 13.5166L11.3779 13.0186L11.333 12.9961L11.2891 13.0186L10.291 13.5166C10.1875 13.5684 10.0726 13.5931 9.95703 13.5879L9.87109 13.5781C9.78621 13.5633 9.70463 13.5328 9.63086 13.4873C9.53243 13.4265 9.4509 13.3413 9.39453 13.2402C9.33816 13.1391 9.30858 13.025 9.30859 12.9092V9.90234Z" fill="#565555" stroke="white" stroke-width="0.2"/>
</svg>
