<svg width="17" height="18" viewBox="0 0 17 18" fill="none" xmlns="http://www.w3.org/2000/svg">
<g clip-path="url(#clip0_1689_892)">
<path d="M8.9201 16.9743L8.91231 16.9757L8.86202 17.0005L8.84785 17.0034L8.83794 17.0005L8.78764 16.9757C8.78009 16.9734 8.77442 16.9746 8.77064 16.9793L8.76781 16.9864L8.75577 17.2895L8.75931 17.3037L8.76639 17.3129L8.84006 17.3653L8.85069 17.3682L8.85919 17.3653L8.93285 17.3129L8.94135 17.3016L8.94419 17.2895L8.93214 16.9871C8.93025 16.9795 8.92624 16.9753 8.9201 16.9743ZM9.10781 16.8943L9.0986 16.8957L8.96756 16.9616L8.96048 16.9687L8.95835 16.9764L8.9711 17.281L8.97464 17.2895L8.98031 17.2945L9.12269 17.3604C9.13166 17.3627 9.1385 17.3608 9.14323 17.3547L9.14606 17.3448L9.12198 16.9099C9.11962 16.9014 9.11489 16.8962 9.10781 16.8943ZM8.60135 16.8957C8.59823 16.8938 8.5945 16.8932 8.59094 16.894C8.58737 16.8948 8.58425 16.8969 8.58223 16.8999L8.57798 16.9099L8.55389 17.3448C8.55437 17.3533 8.55838 17.3589 8.56594 17.3618L8.57656 17.3604L8.71894 17.2945L8.72602 17.2888L8.72885 17.281L8.74089 16.9764L8.73877 16.9679L8.73169 16.9609L8.60135 16.8957Z" fill="#0B75FF"/>
<path d="M12.75 7.58331C13.2953 7.58328 13.829 7.74061 14.2871 8.03641C14.7452 8.33222 15.1082 8.75393 15.3326 9.25094C15.5569 9.74795 15.6331 10.2991 15.5519 10.8384C15.4708 11.3776 15.2357 11.882 14.875 12.2909V15.2602C14.875 15.3931 14.8411 15.5237 14.7764 15.6397C14.7118 15.7557 14.6185 15.8533 14.5055 15.9231C14.3925 15.993 14.2636 16.0328 14.1309 16.0387C13.9982 16.0447 13.8662 16.0166 13.7474 15.9572L12.75 15.4586L11.7527 15.9572C11.6339 16.0166 11.5019 16.0447 11.3692 16.0387C11.2365 16.0328 11.1075 15.993 10.9945 15.9231C10.8815 15.8533 10.7883 15.7557 10.7236 15.6397C10.6589 15.5237 10.625 15.3931 10.625 15.2602V12.2909C10.2643 11.882 10.0293 11.3776 9.94809 10.8384C9.86693 10.2991 9.94309 9.74795 10.1674 9.25094C10.3918 8.75393 10.7548 8.33222 11.2129 8.03641C11.671 7.74061 12.2047 7.58328 12.75 7.58331ZM14.1667 3.33331C14.5424 3.33331 14.9027 3.48257 15.1684 3.74825C15.4341 4.01392 15.5834 4.37426 15.5834 4.74998V6.16665C15.5834 6.35451 15.5087 6.53468 15.3759 6.66751C15.243 6.80035 15.0629 6.87498 14.875 6.87498C14.6872 6.87498 14.507 6.80035 14.3742 6.66751C14.2413 6.53468 14.1667 6.35451 14.1667 6.16665V4.74998H2.83335V13.25H8.50002C8.68788 13.25 8.86805 13.3246 9.00089 13.4574C9.13373 13.5903 9.20835 13.7705 9.20835 13.9583C9.20835 14.1462 9.13373 14.3263 9.00089 14.4592C8.86805 14.592 8.68788 14.6666 8.50002 14.6666H2.83335C2.45763 14.6666 2.0973 14.5174 1.83162 14.2517C1.56594 13.986 1.41669 13.6257 1.41669 13.25V4.74998C1.41669 4.37426 1.56594 4.01392 1.83162 3.74825C2.0973 3.48257 2.45763 3.33331 2.83335 3.33331H14.1667ZM13.4584 13.1607C12.9937 13.2807 12.5063 13.2807 12.0417 13.1607V14.2289L12.4334 14.0334C12.5317 13.9843 12.6401 13.9587 12.75 13.9587C12.8599 13.9587 12.9683 13.9843 13.0666 14.0334L13.4584 14.2289V13.1607ZM12.75 8.99998C12.3743 8.99998 12.014 9.14924 11.7483 9.41491C11.4826 9.68059 11.3334 10.0409 11.3334 10.4166C11.3334 10.7924 11.4826 11.1527 11.7483 11.4184C12.014 11.6841 12.3743 11.8333 12.75 11.8333C13.1257 11.8333 13.4861 11.6841 13.7518 11.4184C14.0174 11.1527 14.1667 10.7924 14.1667 10.4166C14.1667 10.0409 14.0174 9.68059 13.7518 9.41491C13.4861 9.14924 13.1257 8.99998 12.75 8.99998ZM6.37502 9.70831C6.55556 9.70851 6.72921 9.77764 6.86049 9.90158C6.99177 10.0255 7.07077 10.1949 7.08135 10.3751C7.09193 10.5554 7.03329 10.7328 6.91742 10.8713C6.80154 11.0097 6.63717 11.0987 6.45789 11.12L6.37502 11.125H4.95835C4.77781 11.1248 4.60416 11.0556 4.47288 10.9317C4.3416 10.8078 4.2626 10.6384 4.25202 10.4582C4.24144 10.2779 4.30008 10.1005 4.41596 9.96202C4.53183 9.82357 4.6962 9.7346 4.87548 9.71327L4.95835 9.70831H6.37502ZM9.20835 6.87498C9.39621 6.87498 9.57638 6.94961 9.70922 7.08245C9.84206 7.21528 9.91669 7.39545 9.91669 7.58331C9.91669 7.77117 9.84206 7.95134 9.70922 8.08418C9.57638 8.21702 9.39621 8.29165 9.20835 8.29165H4.95835C4.77049 8.29165 4.59032 8.21702 4.45749 8.08418C4.32465 7.95134 4.25002 7.77117 4.25002 7.58331C4.25002 7.39545 4.32465 7.21528 4.45749 7.08245C4.59032 6.94961 4.77049 6.87498 4.95835 6.87498H9.20835Z" fill="#0B75FF"/>
</g>
<defs>
<clipPath id="clip0_1689_892">
<rect width="17" height="17" fill="white" transform="translate(0 0.5)"/>
</clipPath>
</defs>
</svg>
