<svg width="21" height="22" viewBox="0 0 21 22" fill="none" xmlns="http://www.w3.org/2000/svg">
<path d="M13.5625 11H10.5V6.625M2.625 11C2.625 12.0342 2.82869 13.0582 3.22445 14.0136C3.6202 14.9691 4.20027 15.8372 4.93153 16.5685C5.6628 17.2997 6.53093 17.8798 7.48637 18.2756C8.44181 18.6713 9.46584 18.875 10.5 18.875C11.5342 18.875 12.5582 18.6713 13.5136 18.2756C14.4691 17.8798 15.3372 17.2997 16.0685 16.5685C16.7997 15.8372 17.3798 14.9691 17.7756 14.0136C18.1713 13.0582 18.375 12.0342 18.375 11C18.375 9.96584 18.1713 8.94181 17.7756 7.98637C17.3798 7.03093 16.7997 6.1628 16.0685 5.43153C15.3372 4.70027 14.4691 4.1202 13.5136 3.72445C12.5582 3.32869 11.5342 3.125 10.5 3.125C9.46584 3.125 8.44181 3.32869 7.48637 3.72445C6.53093 4.1202 5.6628 4.70027 4.93153 5.43153C4.20027 6.1628 3.6202 7.03093 3.22445 7.98637C2.82869 8.94181 2.625 9.96584 2.625 11Z" stroke="#565555" stroke-width="1.5" stroke-linecap="round" stroke-linejoin="round"/>
</svg>
