<svg width="14" height="15" viewBox="0 0 14 15" fill="none" xmlns="http://www.w3.org/2000/svg">
<path fill-rule="evenodd" clip-rule="evenodd" d="M6.31662 1.00071C6.35564 1.1731 6.32461 1.35393 6.23035 1.50344C6.13609 1.65296 5.98631 1.75892 5.81395 1.79804C5.68313 1.82781 5.55348 1.8625 5.42528 1.90204C5.34163 1.92787 5.25371 1.93697 5.16654 1.92882C5.07937 1.92066 4.99467 1.89542 4.91725 1.85453C4.83984 1.81365 4.77124 1.75791 4.71536 1.69051C4.65949 1.62311 4.61744 1.54536 4.59161 1.46171C4.56579 1.37806 4.55669 1.29014 4.56484 1.20297C4.57299 1.1158 4.59824 1.03109 4.63912 0.95368C4.68001 0.876267 4.73575 0.807666 4.80315 0.751793C4.87055 0.69592 4.9483 0.65387 5.03195 0.628043C5.19195 0.578265 5.35417 0.534932 5.51861 0.498043C5.60402 0.478621 5.69241 0.476218 5.77875 0.490972C5.86508 0.505725 5.94766 0.537346 6.02177 0.584028C6.09588 0.630709 6.16006 0.691536 6.21065 0.763032C6.26124 0.834528 6.29725 0.915292 6.31662 1.00071ZM7.68328 1.00071C7.7224 0.828343 7.82837 0.678566 7.97788 0.584305C8.1274 0.490045 8.30823 0.459017 8.48061 0.498043C11.4499 1.17138 13.6673 3.82604 13.6673 6.99938C13.6673 10.6814 10.6819 13.666 7.00062 13.666C3.82662 13.666 1.17195 11.4494 0.498615 8.48004C0.464054 8.30936 0.497649 8.13194 0.592216 7.98571C0.686783 7.83948 0.834813 7.73606 1.00465 7.69756C1.17448 7.65906 1.35264 7.68855 1.50101 7.77971C1.64939 7.87087 1.7562 8.01648 1.79862 8.18538C2.01076 9.11454 2.46802 9.96989 3.12281 10.6624C3.77761 11.355 4.60603 11.8594 5.52187 12.1232C6.43771 12.387 7.40751 12.4006 8.33038 12.1625C9.25325 11.9244 10.0955 11.4434 10.7694 10.7695C11.4433 10.0955 11.9243 9.25334 12.1624 8.33047C12.4005 7.40761 12.3869 6.4378 12.1231 5.52196C11.8593 4.60612 11.3549 3.77771 10.6623 3.12291C9.9698 2.46811 9.11445 2.01085 8.18528 1.79871C8.01289 1.75945 7.86316 1.65332 7.76902 1.50367C7.67488 1.35402 7.64404 1.1731 7.68328 1.00071ZM3.40928 2.14604C3.4689 2.21024 3.51529 2.28555 3.54578 2.36768C3.57627 2.44981 3.59028 2.53715 3.587 2.6247C3.58372 2.71225 3.56321 2.79829 3.52666 2.87791C3.4901 2.95753 3.43821 3.02916 3.37395 3.08871C3.27528 3.17982 3.18039 3.27449 3.08928 3.37271C2.96818 3.49872 2.80243 3.57214 2.62772 3.57715C2.45302 3.58216 2.28334 3.51836 2.15521 3.3995C2.02708 3.28063 1.95075 3.11621 1.94266 2.94162C1.93457 2.76703 1.99536 2.59625 2.11195 2.46604C2.22528 2.34338 2.3435 2.22493 2.46661 2.11071C2.53081 2.05109 2.60612 2.0047 2.68826 1.97421C2.77039 1.94372 2.85772 1.92971 2.94527 1.93299C3.03282 1.93627 3.11886 1.95678 3.19848 1.99334C3.2781 2.02989 3.34973 2.08178 3.40928 2.14604ZM6.99995 2.99938C7.17676 2.99938 7.34633 3.06961 7.47135 3.19464C7.59638 3.31966 7.66661 3.48923 7.66661 3.66604V6.72338L9.47128 8.52804C9.59272 8.65378 9.65992 8.82218 9.6584 8.99698C9.65688 9.17177 9.58677 9.33898 9.46316 9.46259C9.33955 9.58619 9.17235 9.65631 8.99755 9.65782C8.82275 9.65934 8.65435 9.59215 8.52861 9.47071L6.52861 7.47071C6.40358 7.34571 6.33332 7.17617 6.33328 6.99938V3.66604C6.33328 3.48923 6.40352 3.31966 6.52854 3.19464C6.65357 3.06961 6.82314 2.99938 6.99995 2.99938ZM1.46195 4.59138C1.63088 4.64347 1.7722 4.76052 1.85484 4.9168C1.93747 5.07307 1.95466 5.25577 1.90262 5.42471C1.86307 5.55291 1.82838 5.68256 1.79862 5.81338C1.7562 5.98228 1.64939 6.12788 1.50101 6.21904C1.35264 6.3102 1.17448 6.33969 1.00465 6.30119C0.834813 6.2627 0.686783 6.15927 0.592216 6.01304C0.497649 5.86682 0.464054 5.68939 0.498615 5.51871C0.535948 5.35426 0.579282 5.19204 0.628615 5.03204C0.680708 4.86311 0.797762 4.72179 0.954035 4.63915C1.11031 4.55652 1.29301 4.53933 1.46195 4.59138Z" fill="#9C9791"/>
</svg>
