<svg width="12" height="14" viewBox="0 0 12 14" fill="none" xmlns="http://www.w3.org/2000/svg">
<path d="M4 11.0002C3.63333 11.0002 3.31956 10.8697 3.05867 10.6088C2.79778 10.3479 2.66711 10.0339 2.66667 9.66683V1.66683C2.66667 1.30016 2.79733 0.986385 3.05867 0.725496C3.32 0.464607 3.63378 0.333941 4 0.333496H10C10.3667 0.333496 10.6807 0.464163 10.942 0.725496C11.2033 0.986829 11.3338 1.30061 11.3333 1.66683V9.66683C11.3333 10.0335 11.2029 10.3475 10.942 10.6088C10.6811 10.8702 10.3671 11.0006 10 11.0002H4ZM4 9.66683H10V1.66683H4V9.66683ZM1.33333 13.6668C0.966667 13.6668 0.652889 13.5364 0.392 13.2755C0.131111 13.0146 0.000444444 12.7006 0 12.3335V3.00016H1.33333V12.3335H8.66667V13.6668H1.33333Z" fill="#0B75FF"/>
</svg>
