<svg width="24" height="24" viewBox="0 0 24 24" fill="none" xmlns="http://www.w3.org/2000/svg">
<path d="M9 4.46005C9.97004 4.15186 10.9822 3.99667 12 4.00005C16.182 4.00005 19.028 6.50005 20.725 8.70405C21.575 9.81005 22 10.3611 22 12.0001C22 13.6401 21.575 14.1911 20.725 15.2961C19.028 17.5001 16.182 20.0001 12 20.0001C7.818 20.0001 4.972 17.5001 3.275 15.2961C2.425 14.1921 2 13.6391 2 12.0001C2 10.3601 2.425 9.80905 3.275 8.70405C3.7935 8.02688 4.37074 7.39677 5 6.82105" stroke="#0B75FF" stroke-width="1.5" stroke-linecap="round"/>
<path d="M15 12C15 12.7956 14.6839 13.5587 14.1213 14.1213C13.5587 14.6839 12.7956 15 12 15C11.2044 15 10.4413 14.6839 9.87868 14.1213C9.31607 13.5587 9 12.7956 9 12C9 11.2044 9.31607 10.4413 9.87868 9.87868C10.4413 9.31607 11.2044 9 12 9C12.7956 9 13.5587 9.31607 14.1213 9.87868C14.6839 10.4413 15 11.2044 15 12Z" stroke="#0B75FF" stroke-width="1.5"/>
</svg>
