<svg width="13" height="18" viewBox="0 0 13 18" fill="none" xmlns="http://www.w3.org/2000/svg">
<path d="M1.72677 1.00406e-07C1.26887 1.00406e-07 0.82972 0.194218 0.505933 0.539927C0.182146 0.885636 0.000244141 1.35452 0.000244141 1.84342V15.5064C0.000244141 15.9954 0.182146 16.4642 0.505933 16.8099C0.82972 17.1557 1.26887 17.3499 1.72677 17.3499H11.2735C11.7314 17.3499 12.1705 17.1557 12.4943 16.8099C12.8181 16.4642 13 15.9954 13 15.5064V6.25203C12.9999 5.99334 12.9036 5.74529 12.7323 5.56237L7.79075 0.285406C7.61927 0.102543 7.38679 -0.000117197 7.14442 1.00406e-07H1.72677ZM1.01585 1.84342C1.01585 1.42442 1.33434 1.08437 1.72677 1.08437H6.50012V4.87965C6.50012 5.31104 6.66062 5.72476 6.94632 6.0298C7.23201 6.33483 7.6195 6.5062 8.02353 6.5062H11.9844V15.5064C11.9844 15.7078 11.9095 15.9008 11.7762 16.0432C11.6428 16.1855 11.462 16.2655 11.2735 16.2655H1.72677C1.53823 16.2655 1.3574 16.1855 1.22407 16.0432C1.09075 15.9008 1.01585 15.7078 1.01585 15.5064V1.84342ZM11.1646 5.42184H8.02353C7.74322 5.42184 7.51573 5.17894 7.51573 4.87965V1.52592L11.1646 5.42184Z" fill="#787878"/>
</svg>
