<svg width="22" height="22" viewBox="0 0 22 22" fill="none" xmlns="http://www.w3.org/2000/svg">
<path d="M7.75 1.24976H2.33333C1.73502 1.24976 1.25 1.73478 1.25 2.33309V9.91642C1.25 10.5147 1.73502 10.9998 2.33333 10.9998H7.75C8.34831 10.9998 8.83333 10.5147 8.83333 9.91642V2.33309C8.83333 1.73478 8.34831 1.24976 7.75 1.24976Z" stroke="#414554" stroke-width="1.58044" stroke-linecap="round" stroke-linejoin="round"/>
<path d="M19.6667 1.24951H14.2501C13.6518 1.24951 13.1667 1.73454 13.1667 2.33284V5.58284C13.1667 6.18115 13.6518 6.66618 14.2501 6.66618H19.6667C20.2651 6.66618 20.7501 6.18115 20.7501 5.58284V2.33284C20.7501 1.73454 20.2651 1.24951 19.6667 1.24951Z" stroke="#414554" stroke-width="1.58044" stroke-linecap="round" stroke-linejoin="round"/>
<path d="M19.6667 10.9995H14.2501C13.6518 10.9995 13.1667 11.4845 13.1667 12.0828V19.6662C13.1667 20.2645 13.6518 20.7495 14.2501 20.7495H19.6667C20.2651 20.7495 20.7501 20.2645 20.7501 19.6662V12.0828C20.7501 11.4845 20.2651 10.9995 19.6667 10.9995Z" stroke="#414554" stroke-width="1.58044" stroke-linecap="round" stroke-linejoin="round"/>
<path d="M7.75 15.333H2.33333C1.73502 15.333 1.25 15.818 1.25 16.4163V19.6663C1.25 20.2646 1.73502 20.7497 2.33333 20.7497H7.75C8.34831 20.7497 8.83333 20.2646 8.83333 19.6663V16.4163C8.83333 15.818 8.34831 15.333 7.75 15.333Z" stroke="#414554" stroke-width="1.58044" stroke-linecap="round" stroke-linejoin="round"/>
</svg>
