<svg width="22" height="22" viewBox="0 0 22 22" fill="none" xmlns="http://www.w3.org/2000/svg">
<path d="M10.0898 19.2493H8.80462C5.51837 19.2493 3.87571 19.2493 2.85454 18.2089C1.83337 17.1685 1.83337 15.4938 1.83337 12.1452C1.83337 8.7966 1.83337 7.12185 2.85454 6.08143C3.87571 5.04102 5.51837 5.04102 8.80462 5.04102H12.2907C15.577 5.04102 17.2205 5.04102 18.2417 6.08143C19.0273 6.88168 19.2079 8.05777 19.25 10.0827" stroke="#414554" stroke-width="1.5" stroke-linecap="round" stroke-linejoin="round"/>
<path d="M18.349 18.3541L20.1667 20.1663M14.6667 5.04134L14.5751 4.75717C14.1213 3.34551 13.8949 2.63967 13.355 2.23634C12.8142 1.83301 12.0973 1.83301 10.6609 1.83301H10.4198C8.98525 1.83301 8.2675 1.83301 7.72758 2.23634C7.18675 2.63967 6.96033 3.34551 6.50658 4.75717L6.41675 5.04134M19.2987 16.0652C19.3059 15.6361 19.2276 15.2098 19.0684 14.8113C18.9092 14.4128 18.6722 14.0499 18.3713 13.7439C18.0704 13.4379 17.7116 13.1949 17.3158 13.029C16.9201 12.8631 16.4952 12.7777 16.066 12.7777C15.6369 12.7777 15.212 12.8631 14.8162 13.029C14.4204 13.1949 14.0616 13.4379 13.7607 13.7439C13.4598 14.0499 13.2229 14.4128 13.0637 14.8113C12.9045 15.2098 12.8262 15.6361 12.8334 16.0652C12.8477 16.9131 13.1946 17.7215 13.7992 18.316C14.4039 18.9106 15.218 19.2438 16.066 19.2438C16.9141 19.2438 17.7282 18.9106 18.3328 18.316C18.9375 17.7215 19.2844 16.9131 19.2987 16.0652Z" stroke="#414554" stroke-width="1.5" stroke-linecap="round" stroke-linejoin="round"/>
</svg>
