<svg width="31" height="31" viewBox="0 0 31 31" fill="none" xmlns="http://www.w3.org/2000/svg">
<path d="M11.1597 29.1402C11.1597 29.9047 11.6358 30.3802 12.3997 30.3802C13.1654 30.3802 13.6397 29.9047 13.6397 29.1402V17.3602H14.8797V29.1402C14.8797 29.9034 15.3552 30.3802 16.1197 30.3802C16.8841 30.3802 17.3597 29.9047 17.3597 29.1402V9.3002H17.9797V16.6249C17.9797 18.1098 19.8434 18.1098 19.8397 16.6249V9.09002C19.8397 7.4495 18.658 6.2002 16.7397 6.2002H11.7797C10.0313 6.2002 8.67969 7.26598 8.67969 9.04414V16.7402C8.67969 17.9802 10.5397 17.9802 10.5397 16.7402V9.3002H11.1597V29.1402Z" fill="#0B75FF"/>
<path d="M14.1825 5.42457C15.595 5.42457 16.74 4.27954 16.74 2.86707C16.74 1.4546 15.595 0.30957 14.1825 0.30957C12.77 0.30957 11.625 1.4546 11.625 2.86707C11.625 4.27954 12.77 5.42457 14.1825 5.42457Z" fill="#0B75FF"/>
</svg>
