<svg width="46" height="47" viewBox="0 0 46 47" fill="none" xmlns="http://www.w3.org/2000/svg">
<path d="M19.3939 34.698L37.804 16.3019L37.8324 16.3303L38.0373 16.1254C38.2503 15.9125 38.4192 15.6597 38.5344 15.3814C38.6497 15.1032 38.709 14.805 38.709 14.5038C38.709 14.2027 38.6497 13.9045 38.5344 13.6263C38.4192 13.348 38.2503 13.0952 38.0373 12.8823C37.8244 12.6693 37.5716 12.5004 37.2934 12.3852C37.0151 12.2699 36.7169 12.2106 36.4158 12.2106C36.1146 12.2106 35.8164 12.2699 35.5382 12.3852C35.26 12.5004 35.0072 12.6693 34.7943 12.8822C34.7943 12.8822 34.7942 12.8822 34.7942 12.8823L19.2175 28.445L11.234 20.4614C10.8039 20.0314 10.2206 19.7898 9.61243 19.7898C9.00422 19.7898 8.42093 20.0314 7.99086 20.4614C7.5608 20.8915 7.31919 21.4748 7.31919 22.083C7.31919 22.6912 7.5608 23.2745 7.99086 23.7046L18.9842 34.6979L19.189 34.9027L19.3939 34.698ZM10.568 4.89397C14.2479 2.43516 18.5742 1.12278 22.9999 1.12278C28.9347 1.12278 34.6263 3.48034 38.8228 7.67682C43.0193 11.8733 45.3768 17.565 45.3768 23.4997C45.3768 27.9254 44.0644 32.2517 41.6056 35.9316C39.1468 39.6115 35.652 42.4796 31.5632 44.1732C27.4744 45.8669 22.9751 46.31 18.6344 45.4466C14.2937 44.5832 10.3065 42.452 7.17708 39.3225C4.04761 36.1931 1.91642 32.2059 1.053 27.8652C0.189583 23.5245 0.63272 19.0252 2.32637 14.9364C4.02003 10.8476 6.88813 7.35277 10.568 4.89397Z" fill="#54CB36" fill-opacity="0.5" stroke="#14D417" stroke-width="0.579545"/>
</svg>
