<svg width="12" height="14" viewBox="0 0 12 14" fill="none" xmlns="http://www.w3.org/2000/svg">
<path d="M6.83342 3.66683C6.83342 3.84364 6.76318 4.01321 6.63815 4.13823C6.51313 4.26326 6.34356 4.3335 6.16675 4.3335C5.98994 4.3335 5.82037 4.26326 5.69534 4.13823C5.57032 4.01321 5.50008 3.84364 5.50008 3.66683C5.50008 3.49002 5.57032 3.32045 5.69534 3.19542C5.82037 3.0704 5.98994 3.00016 6.16675 3.00016C6.34356 3.00016 6.51313 3.0704 6.63815 3.19542C6.76318 3.32045 6.83342 3.49002 6.83342 3.66683ZM5.66675 5.50016V8.8335C5.66675 8.9661 5.71943 9.09328 5.8132 9.18705C5.90696 9.28082 6.03414 9.3335 6.16675 9.3335C6.29936 9.3335 6.42653 9.28082 6.5203 9.18705C6.61407 9.09328 6.66675 8.9661 6.66675 8.8335V5.50016C6.66675 5.36755 6.61407 5.24038 6.5203 5.14661C6.42653 5.05284 6.29936 5.00016 6.16675 5.00016C6.03414 5.00016 5.90696 5.05284 5.8132 5.14661C5.71943 5.24038 5.66675 5.36755 5.66675 5.50016ZM0.666748 2.00016C0.666748 1.55814 0.842343 1.13421 1.1549 0.821651C1.46746 0.509091 1.89139 0.333496 2.33341 0.333496H10.0001C10.219 0.333496 10.4357 0.376606 10.6379 0.460364C10.8401 0.544121 11.0238 0.666887 11.1786 0.821651C11.3334 0.976416 11.4561 1.16015 11.5399 1.36236C11.6236 1.56457 11.6667 1.78129 11.6667 2.00016V11.5002C11.6667 11.6328 11.6141 11.7599 11.5203 11.8537C11.4265 11.9475 11.2994 12.0002 11.1667 12.0002H1.66675C1.66675 12.177 1.73699 12.3465 1.86201 12.4716C1.98703 12.5966 2.1566 12.6668 2.33341 12.6668H11.1667C11.2994 12.6668 11.4265 12.7195 11.5203 12.8133C11.6141 12.907 11.6667 13.0342 11.6667 13.1668C11.6667 13.2994 11.6141 13.4266 11.5203 13.5204C11.4265 13.6142 11.2994 13.6668 11.1667 13.6668H2.33341C1.89139 13.6668 1.46746 13.4912 1.1549 13.1787C0.842343 12.8661 0.666748 12.4422 0.666748 12.0002V2.00016ZM10.6667 11.0002V2.00016C10.6667 1.82335 10.5965 1.65378 10.4715 1.52876C10.3465 1.40373 10.1769 1.3335 10.0001 1.3335H2.33341C2.1566 1.3335 1.98703 1.40373 1.86201 1.52876C1.73699 1.65378 1.66675 1.82335 1.66675 2.00016V11.0002H10.6667Z" fill="#565555"/>
</svg>
