<svg width="18" height="18" viewBox="0 0 18 18" fill="none" xmlns="http://www.w3.org/2000/svg">
<g clip-path="url(#clip0_5215_2248)">
<path d="M6.74997 10.6071H1.28568C1.11518 10.6071 0.95167 10.6748 0.831111 10.7954C0.710552 10.916 0.642822 11.0795 0.642822 11.25V16.7143C0.642822 16.8847 0.710552 17.0483 0.831111 17.1688C0.95167 17.2894 1.11518 17.3571 1.28568 17.3571H6.74997C6.92046 17.3571 7.08397 17.2894 7.20453 17.1688C7.32509 17.0483 7.39282 16.8847 7.39282 16.7143V11.25C7.39282 11.0795 7.32509 10.916 7.20453 10.7954C7.08397 10.6748 6.92046 10.6071 6.74997 10.6071ZM16.7143 10.6071H11.25C11.0795 10.6071 10.916 10.6748 10.7954 10.7954C10.6748 10.916 10.6071 11.0795 10.6071 11.25V16.7143C10.6071 16.8847 10.6748 17.0483 10.7954 17.1688C10.916 17.2894 11.0795 17.3571 11.25 17.3571H16.7143C16.8847 17.3571 17.0483 17.2894 17.1688 17.1688C17.2894 17.0483 17.3571 16.8847 17.3571 16.7143V11.25C17.3571 11.0795 17.2894 10.916 17.1688 10.7954C17.0483 10.6748 16.8847 10.6071 16.7143 10.6071ZM11.7385 0.642822H6.27425C6.10375 0.642822 5.94024 0.710552 5.81968 0.831111C5.69912 0.95167 5.63139 1.11518 5.63139 1.28568V6.74997C5.63139 6.92046 5.69912 7.08397 5.81968 7.20453C5.94024 7.32509 6.10375 7.39282 6.27425 7.39282H11.7385C11.909 7.39282 12.0725 7.32509 12.1931 7.20453C12.3137 7.08397 12.3814 6.92046 12.3814 6.74997V1.28568C12.3814 1.11518 12.3137 0.95167 12.1931 0.831111C12.0725 0.710552 11.909 0.642822 11.7385 0.642822Z" stroke="#0B75FF" stroke-width="1.5" stroke-linecap="round" stroke-linejoin="round"/>
</g>
<defs>
<clipPath id="clip0_5215_2248">
<rect width="18" height="18" fill="white"/>
</clipPath>
</defs>
</svg>
