<svg width="18" height="18" viewBox="0 0 18 18" fill="none" xmlns="http://www.w3.org/2000/svg">
<g clip-path="url(#clip0_5182_9331)">
<path d="M6.75003 10.6071H1.28574C1.11524 10.6071 0.951731 10.6748 0.831172 10.7954C0.710613 10.916 0.642883 11.0795 0.642883 11.25V16.7143C0.642883 16.8847 0.710613 17.0483 0.831172 17.1688C0.951731 17.2894 1.11524 17.3571 1.28574 17.3571H6.75003C6.92052 17.3571 7.08404 17.2894 7.20459 17.1688C7.32515 17.0483 7.39288 16.8847 7.39288 16.7143V11.25C7.39288 11.0795 7.32515 10.916 7.20459 10.7954C7.08404 10.6748 6.92052 10.6071 6.75003 10.6071ZM16.7143 10.6071H11.25C11.0795 10.6071 10.916 10.6748 10.7955 10.7954C10.6749 10.916 10.6072 11.0795 10.6072 11.25V16.7143C10.6072 16.8847 10.6749 17.0483 10.7955 17.1688C10.916 17.2894 11.0795 17.3571 11.25 17.3571H16.7143C16.8848 17.3571 17.0483 17.2894 17.1689 17.1688C17.2894 17.0483 17.3572 16.8847 17.3572 16.7143V11.25C17.3572 11.0795 17.2894 10.916 17.1689 10.7954C17.0483 10.6748 16.8848 10.6071 16.7143 10.6071ZM11.7386 0.642822H6.27431C6.10382 0.642822 5.9403 0.710552 5.81974 0.831111C5.69918 0.95167 5.63145 1.11518 5.63145 1.28568V6.74997C5.63145 6.92046 5.69918 7.08397 5.81974 7.20453C5.9403 7.32509 6.10382 7.39282 6.27431 7.39282H11.7386C11.9091 7.39282 12.0726 7.32509 12.1932 7.20453C12.3137 7.08397 12.3815 6.92046 12.3815 6.74997V1.28568C12.3815 1.11518 12.3137 0.95167 12.1932 0.831111C12.0726 0.710552 11.9091 0.642822 11.7386 0.642822Z" stroke="black" stroke-width="1.5" stroke-linecap="round" stroke-linejoin="round"/>
</g>
<defs>
<clipPath id="clip0_5182_9331">
<rect width="18" height="18" fill="white"/>
</clipPath>
</defs>
</svg>
