<svg width="16" height="16" viewBox="0 0 16 16" fill="none" xmlns="http://www.w3.org/2000/svg">
<path d="M2.35 5.5V5.65H2.5H5.5H5.65V5.5V2.5V2.35H5.5H2.5H2.35V2.5V5.5ZM2.5 10.35H2.35V10.5V13.5V13.65H2.5H5.5H5.65V13.5V10.5V10.35H5.5H2.5ZM1.15 2C1.15 1.77457 1.23955 1.55837 1.39896 1.39896C1.55837 1.23955 1.77457 1.15 2 1.15H6C6.22543 1.15 6.44163 1.23955 6.60104 1.39896C6.76045 1.55837 6.85 1.77457 6.85 2V6C6.85 6.22543 6.76045 6.44163 6.60104 6.60104C6.44163 6.76045 6.22543 6.85 6 6.85H2C1.77457 6.85 1.55837 6.76045 1.39896 6.60104C1.23955 6.44163 1.15 6.22543 1.15 6V2ZM9.15 2.25C9.15 2.09087 9.21321 1.93826 9.32574 1.82574C9.43826 1.71321 9.59087 1.65 9.75 1.65H14.25C14.4091 1.65 14.5617 1.71321 14.6743 1.82574C14.7868 1.93826 14.85 2.09087 14.85 2.25C14.85 2.40913 14.7868 2.56174 14.6743 2.67426C14.5617 2.78679 14.4091 2.85 14.25 2.85H9.75C9.59087 2.85 9.43826 2.78679 9.32574 2.67426C9.21321 2.56174 9.15 2.40913 9.15 2.25ZM9.32574 5.32574C9.43826 5.21321 9.59087 5.15 9.75 5.15H14.25C14.4091 5.15 14.5617 5.21321 14.6743 5.32574C14.7868 5.43826 14.85 5.59087 14.85 5.75C14.85 5.90913 14.7868 6.06174 14.6743 6.17426C14.5617 6.28679 14.4091 6.35 14.25 6.35H9.75C9.59087 6.35 9.43826 6.28679 9.32574 6.17426C9.21321 6.06174 9.15 5.90913 9.15 5.75C9.15 5.59087 9.21321 5.43826 9.32574 5.32574ZM1.39896 9.39896C1.55837 9.23955 1.77457 9.15 2 9.15H6C6.22543 9.15 6.44163 9.23955 6.60104 9.39896C6.76045 9.55836 6.85 9.77457 6.85 10V14C6.85 14.2254 6.76045 14.4416 6.60104 14.601C6.44163 14.7604 6.22543 14.85 6 14.85H2C1.77457 14.85 1.55837 14.7604 1.39896 14.601C1.23955 14.4416 1.15 14.2254 1.15 14V10C1.15 9.77457 1.23955 9.55836 1.39896 9.39896ZM9.32574 9.82574C9.43826 9.71321 9.59087 9.65 9.75 9.65H14.25C14.4091 9.65 14.5617 9.71321 14.6743 9.82574C14.7868 9.93826 14.85 10.0909 14.85 10.25C14.85 10.4091 14.7868 10.5617 14.6743 10.6743C14.5617 10.7868 14.4091 10.85 14.25 10.85H9.75C9.59087 10.85 9.43826 10.7868 9.32574 10.6743C9.21321 10.5617 9.15 10.4091 9.15 10.25C9.15 10.0909 9.21321 9.93826 9.32574 9.82574ZM9.32574 13.3257C9.43826 13.2132 9.59087 13.15 9.75 13.15H14.25C14.4091 13.15 14.5617 13.2132 14.6743 13.3257C14.7868 13.4383 14.85 13.5909 14.85 13.75C14.85 13.9091 14.7868 14.0617 14.6743 14.1743C14.5617 14.2868 14.4091 14.35 14.25 14.35H9.75C9.59087 14.35 9.43826 14.2868 9.32574 14.1743C9.21321 14.0617 9.15 13.9091 9.15 13.75C9.15 13.5909 9.21321 13.4383 9.32574 13.3257Z" fill="#0B75FF" stroke="white" stroke-width="0.3"/>
</svg>
