<svg width="22" height="22" viewBox="0 0 22 22" fill="none" xmlns="http://www.w3.org/2000/svg">
<path d="M19.25 18.3333C19.25 16.7364 17.7192 15.3788 15.5833 14.8747M13.75 18.3333C13.75 16.3074 11.2878 14.6666 8.25 14.6666C5.21217 14.6666 2.75 16.3074 2.75 18.3333M13.75 11.9166C14.7225 11.9166 15.6551 11.5303 16.3427 10.8426C17.0304 10.155 17.4167 9.22238 17.4167 8.24992C17.4167 7.27746 17.0304 6.34483 16.3427 5.65719C15.6551 4.96956 14.7225 4.58325 13.75 4.58325M8.25 11.9166C7.27754 11.9166 6.34491 11.5303 5.65727 10.8426C4.96964 10.155 4.58333 9.22238 4.58333 8.24992C4.58333 7.27746 4.96964 6.34483 5.65727 5.65719C6.34491 4.96956 7.27754 4.58325 8.25 4.58325C9.22246 4.58325 10.1551 4.96956 10.8427 5.65719C11.5304 6.34483 11.9167 7.27746 11.9167 8.24992C11.9167 9.22238 11.5304 10.155 10.8427 10.8426C10.1551 11.5303 9.22246 11.9166 8.25 11.9166Z" stroke="#414554" stroke-width="1.5" stroke-linecap="round" stroke-linejoin="round"/>
</svg>
