<svg width="36" height="35" viewBox="0 0 36 35" fill="none" xmlns="http://www.w3.org/2000/svg">
<g clip-path="url(#clip0_1635_4937)">
<path d="M13.6567 26.916L19.4167 21.156L25.1767 26.916L27.4167 24.676L21.6567 18.916L27.4167 13.156L25.1767 10.916L19.4167 16.676L13.6567 10.916L11.4167 13.156L17.1767 18.916L11.4167 24.676L13.6567 26.916ZM19.4167 34.916C17.2034 34.916 15.1234 34.4957 13.1767 33.6552C11.2301 32.8147 9.53675 31.6749 8.09675 30.236C6.65675 28.7971 5.51702 27.1037 4.67755 25.156C3.83808 23.2083 3.41782 21.1283 3.41675 18.916C3.41568 16.7037 3.83595 14.6237 4.67755 12.676C5.51915 10.7283 6.65888 9.03495 8.09675 7.59601C9.53461 6.15708 11.2279 5.01735 13.1767 4.17682C15.1255 3.33628 17.2055 2.91602 19.4167 2.91602C21.6279 2.91602 23.7079 3.33628 25.6567 4.17682C27.6055 5.01735 29.2989 6.15708 30.7367 7.59601C32.1746 9.03495 33.3149 10.7283 34.1575 12.676C35.0002 14.6237 35.4199 16.7037 35.4167 18.916C35.4135 21.1283 34.9933 23.2083 34.1559 25.156C33.3186 27.1037 32.1789 28.7971 30.7367 30.236C29.2946 31.6749 27.6013 32.8152 25.6567 33.6568C23.7122 34.4984 21.6322 34.9181 19.4167 34.916ZM19.4167 31.716C22.9901 31.716 26.0167 30.476 28.4967 27.996C30.9767 25.516 32.2167 22.4893 32.2167 18.916C32.2167 15.3427 30.9767 12.316 28.4967 9.83601C26.0167 7.35601 22.9901 6.11601 19.4167 6.11601C15.8434 6.11601 12.8167 7.35601 10.3367 9.83601C7.85675 12.316 6.61675 15.3427 6.61675 18.916C6.61675 22.4893 7.85675 25.516 10.3367 27.996C12.8167 30.476 15.8434 31.716 19.4167 31.716Z" fill="#9C9791"/>
</g>
<defs>
<clipPath id="clip0_1635_4937">
<rect width="35" height="35" fill="white" transform="translate(0.5)"/>
</clipPath>
</defs>
</svg>
