<svg width="20" height="17" viewBox="0 0 20 17" fill="none" xmlns="http://www.w3.org/2000/svg">
<path fill-rule="evenodd" clip-rule="evenodd" d="M19.5302 7.97043C19.6706 8.11105 19.7495 8.30168 19.7495 8.50043C19.7495 8.69918 19.6706 8.8898 19.5302 9.03043L12.5432 16.0304C12.474 16.1021 12.3913 16.1593 12.2998 16.1986C12.2083 16.238 12.1099 16.2587 12.0103 16.2596C11.9107 16.2605 11.812 16.2416 11.7198 16.2039C11.6276 16.1663 11.5438 16.1106 11.4734 16.0402C11.4029 15.9698 11.3472 15.8861 11.3094 15.794C11.2717 15.7018 11.2527 15.6031 11.2535 15.5035C11.2543 15.4039 11.275 15.3055 11.3142 15.214C11.3535 15.1224 11.4106 15.0396 11.4822 14.9704L17.1902 9.25143L1.00017 9.26243C0.80126 9.26269 0.61039 9.18393 0.469549 9.04347C0.328709 8.903 0.249437 8.71234 0.249172 8.51343C0.248907 8.31452 0.327669 8.12364 0.468134 7.98281C0.608599 7.84197 0.799259 7.76269 0.998171 7.76243L17.1922 7.75243L11.4812 2.03043C11.4096 1.96121 11.3525 1.87842 11.3132 1.7869C11.2739 1.69538 11.2533 1.59696 11.2525 1.49737C11.2517 1.39779 11.2707 1.29904 11.3084 1.20688C11.3462 1.11473 11.4019 1.03102 11.4724 0.960631C11.5428 0.890245 11.6266 0.834595 11.7188 0.796927C11.811 0.75926 11.9097 0.74033 12.0093 0.741242C12.1089 0.742154 12.2073 0.76289 12.2988 0.802239C12.3903 0.841589 12.473 0.898763 12.5422 0.970428L19.5302 7.97043Z" fill="#0B75FF"/>
</svg>
