<svg width="17" height="18" viewBox="0 0 17 18" fill="none" xmlns="http://www.w3.org/2000/svg">
<path d="M5.5 15H6V14.5V3.5V3H5.5H2.75H2.25V3.5V14.5V15H2.75H5.5ZM13.75 15H14.25V14.5V3.5V3H13.75H6.875H6.375V3.5V14.5V15H6.875H13.75ZM2.0625 2.625H14.4375C14.4872 2.625 14.5349 2.64476 14.5701 2.67992C14.6052 2.71508 14.625 2.76277 14.625 2.8125V15.1875C14.625 15.2372 14.6052 15.2849 14.5701 15.3201C14.5349 15.3552 14.4872 15.375 14.4375 15.375H2.0625C2.01277 15.375 1.96508 15.3552 1.92992 15.3201C1.89476 15.2849 1.875 15.2372 1.875 15.1875V2.8125C1.875 2.76277 1.89475 2.71508 1.92992 2.67992C1.96508 2.64475 2.01277 2.625 2.0625 2.625Z" fill="black" stroke="#99948E"/>
</svg>
