<svg width="14" height="14" viewBox="0 0 14 14" fill="none" xmlns="http://www.w3.org/2000/svg">
<path d="M12.9999 0.333252H0.999919C0.823108 0.333252 0.653538 0.40349 0.528514 0.528514C0.40349 0.653538 0.333252 0.823108 0.333252 0.999919V12.9999C0.333252 13.1767 0.40349 13.3463 0.528514 13.4713C0.653538 13.5963 0.823108 13.6666 0.999919 13.6666H12.9999C13.1767 13.6666 13.3463 13.5963 13.4713 13.4713C13.5963 13.3463 13.6666 13.1767 13.6666 12.9999V0.999919C13.6666 0.823108 13.5963 0.653538 13.4713 0.528514C13.3463 0.40349 13.1767 0.333252 12.9999 0.333252ZM4.33325 12.3333H1.66659V1.66659H4.33325V12.3333ZM12.3333 12.3333H5.66658V1.66659H12.3333V12.3333Z" fill="#0B75FF"/>
</svg>
