<svg width="31" height="31" viewBox="0 0 31 31" fill="none" xmlns="http://www.w3.org/2000/svg">
<path fill-rule="evenodd" clip-rule="evenodd" d="M18.904 4.44593C19.6029 4.66176 20.271 4.93926 20.9082 5.27843L23.7341 3.58259C24.0287 3.40586 24.374 3.33263 24.715 3.37452C25.0561 3.41642 25.3733 3.57104 25.6165 3.81384L27.1859 5.38326C27.4287 5.62638 27.5833 5.94365 27.6252 6.28468C27.6671 6.62572 27.5939 6.97097 27.4171 7.26563L25.7213 10.0915C26.0605 10.7287 26.338 11.3968 26.5538 12.0957L29.7497 12.8958C30.0831 12.9793 30.379 13.1718 30.5904 13.4428C30.8019 13.7137 30.9167 14.0475 30.9167 14.3912V16.6081C30.9167 16.9518 30.8019 17.2856 30.5904 17.5566C30.379 17.8275 30.0831 18.02 29.7497 18.1036L26.5538 18.9037C26.338 19.6026 26.0605 20.2706 25.7213 20.9078L27.4171 23.7337C27.5939 24.0284 27.6671 24.3736 27.6252 24.7147C27.5833 25.0557 27.4287 25.373 27.1859 25.6161L25.6165 27.1855C25.3733 27.4283 25.0561 27.5829 24.715 27.6248C24.374 27.6667 24.0287 27.5935 23.7341 27.4168L20.9082 25.7209C20.271 26.0601 19.6029 26.3376 18.904 26.5534L18.1039 29.7493C18.0204 30.0827 17.8279 30.3786 17.5569 30.59C17.286 30.8015 16.9522 30.9163 16.6085 30.9163H14.3916C14.0479 30.9163 13.7141 30.8015 13.4431 30.59C13.1722 30.3786 12.9797 30.0827 12.8962 29.7493L12.096 26.5534C11.4034 26.3394 10.7324 26.0606 10.0919 25.7209L7.266 27.4168C6.97134 27.5935 6.62608 27.6667 6.28505 27.6248C5.94401 27.5829 5.62675 27.4283 5.38363 27.1855L3.81421 25.6161C3.57141 25.373 3.41678 25.0557 3.37489 24.7147C3.33299 24.3736 3.40622 24.0284 3.58296 23.7337L5.27879 20.9078C4.93907 20.2674 4.66034 19.5964 4.44629 18.9037L1.25042 18.1036C0.917292 18.0201 0.621568 17.8278 0.41015 17.5572C0.198732 17.2866 0.0837265 16.9531 0.083374 16.6097V14.3928C0.0833831 14.0491 0.198232 13.7153 0.409676 13.4443C0.621121 13.1734 0.917036 12.9809 1.25042 12.8973L4.44629 12.0972C4.66212 11.3983 4.93962 10.7303 5.27879 10.0931L3.58296 7.26718C3.40622 6.97251 3.33299 6.62726 3.37489 6.28622C3.41678 5.94519 3.57141 5.62792 3.81421 5.3848L5.38363 3.81384C5.62675 3.57104 5.94401 3.41642 6.28505 3.37452C6.62608 3.33263 6.97134 3.40586 7.266 3.58259L10.0919 5.27843C10.7291 4.93926 11.3972 4.66176 12.096 4.44593L12.8962 1.25005C12.9796 0.916925 13.1719 0.621201 13.4425 0.409784C13.7132 0.198366 14.0466 0.0833603 14.39 0.0830078H16.607C16.9506 0.0830168 17.2845 0.197865 17.5554 0.40931C17.8263 0.620755 18.0189 0.916669 18.1024 1.25005L18.904 4.44593ZM15.5 21.6663C17.1355 21.6663 18.7041 21.0166 19.8605 19.8602C21.017 18.7037 21.6667 17.1352 21.6667 15.4997C21.6667 13.8642 21.017 12.2957 19.8605 11.1392C18.7041 9.98271 17.1355 9.33301 15.5 9.33301C13.8645 9.33301 12.296 9.98271 11.1396 11.1392C9.98308 12.2957 9.33338 13.8642 9.33338 15.4997C9.33338 17.1352 9.98308 18.7037 11.1396 19.8602C12.296 21.0166 13.8645 21.6663 15.5 21.6663Z" fill="black"/>
</svg>
