<svg width="18" height="18" viewBox="0 0 18 18" fill="none" xmlns="http://www.w3.org/2000/svg">
<path d="M14.25 3.75L8.99998 1.5L3.74998 3.75L6.37498 4.875V6.375M14.25 3.75L11.625 4.875V6.375M14.25 3.75V6.75M6.37498 6.375C6.37498 6.375 7.25023 6 8.99998 6C10.7497 6 11.625 6.375 11.625 6.375M6.37498 6.375V7.125C6.37498 7.46972 6.44288 7.81106 6.5748 8.12954C6.70672 8.44802 6.90008 8.7374 7.14383 8.98115C7.38758 9.22491 7.67696 9.41826 7.99544 9.55018C8.31392 9.6821 8.65526 9.75 8.99998 9.75C9.3447 9.75 9.68605 9.6821 10.0045 9.55018C10.323 9.41826 10.6124 9.22491 10.8561 8.98115C11.0999 8.7374 11.2932 8.44802 11.4252 8.12954C11.5571 7.81106 11.625 7.46972 11.625 7.125V6.375M5.83723 12.5272C5.01223 13.041 2.84773 14.0887 4.16548 15.4005C4.80973 16.0425 5.52748 16.5 6.42823 16.5H11.5717C12.4732 16.5 13.1902 16.0417 13.8345 15.4005C15.1522 14.0887 12.9885 13.041 12.1627 12.528C11.2133 11.938 10.1178 11.6254 8.99998 11.6254C7.88219 11.6254 6.78667 11.938 5.83723 12.528" stroke="#565555" stroke-linecap="round" stroke-linejoin="round"/>
</svg>
