<svg width="18" height="18" viewBox="0 0 18 18" fill="none" xmlns="http://www.w3.org/2000/svg">
<path d="M14.25 3.75L9.00001 1.5L3.75002 3.75L6.37501 4.875V6.375M14.25 3.75L11.625 4.875V6.375M14.25 3.75V6.75M6.37501 6.375C6.37501 6.375 7.25026 6 9.00001 6C10.7498 6 11.625 6.375 11.625 6.375M6.37501 6.375V7.125C6.37501 7.46972 6.44291 7.81106 6.57483 8.12954C6.70675 8.44802 6.90011 8.7374 7.14386 8.98115C7.38761 9.22491 7.67699 9.41826 7.99547 9.55018C8.31395 9.6821 8.65529 9.75 9.00001 9.75C9.34473 9.75 9.68608 9.6821 10.0046 9.55018C10.323 9.41826 10.6124 9.22491 10.8562 8.98115C11.0999 8.7374 11.2933 8.44802 11.4252 8.12954C11.5571 7.81106 11.625 7.46972 11.625 7.125V6.375M5.83726 12.5272C5.01226 13.041 2.84777 14.0887 4.16551 15.4005C4.80976 16.0425 5.52751 16.5 6.42826 16.5H11.5718C12.4733 16.5 13.1903 16.0417 13.8345 15.4005C15.1523 14.0887 12.9885 13.041 12.1628 12.528C11.2133 11.938 10.1178 11.6254 9.00001 11.6254C7.88222 11.6254 6.7867 11.938 5.83726 12.528" stroke="#0B75FF" stroke-width="1.2" stroke-linecap="round" stroke-linejoin="round"/>
</svg>
