<svg width="20" height="20" viewBox="0 0 20 20" fill="none" xmlns="http://www.w3.org/2000/svg">
<path d="M9.08979 18.2503H7.80462C4.51837 18.2503 2.87571 18.2503 1.85454 17.2099C0.833374 16.1695 0.833374 14.4947 0.833374 11.1462C0.833374 7.79758 0.833374 6.12283 1.85454 5.08241C2.87571 4.04199 4.51837 4.04199 7.80462 4.04199H11.2907C14.577 4.04199 16.2205 4.04199 17.2417 5.08241C18.0273 5.88266 18.2079 7.05874 18.25 9.08366" stroke="#414554" stroke-width="1.5" stroke-linecap="round" stroke-linejoin="round"/>
<path d="M17.349 17.3546L19.1667 19.1668M13.6667 4.04183L13.5751 3.75766C13.1213 2.346 12.8949 1.64016 12.355 1.23683C11.8142 0.833496 11.0973 0.833496 9.66091 0.833496H9.41983C7.98525 0.833496 7.2675 0.833496 6.72758 1.23683C6.18675 1.64016 5.96033 2.346 5.50658 3.75766L5.41675 4.04183M18.2987 15.0657C18.3059 14.6366 18.2276 14.2103 18.0684 13.8118C17.9092 13.4133 17.6722 13.0504 17.3713 12.7444C17.0704 12.4384 16.7116 12.1954 16.3158 12.0295C15.9201 11.8636 15.4952 11.7781 15.066 11.7781C14.6369 11.7781 14.212 11.8636 13.8162 12.0295C13.4204 12.1954 13.0616 12.4384 12.7607 12.7444C12.4598 13.0504 12.2229 13.4133 12.0637 13.8118C11.9045 14.2103 11.8262 14.6366 11.8334 15.0657C11.8477 15.9136 12.1946 16.7219 12.7992 17.3165C13.4039 17.9111 14.218 18.2443 15.066 18.2443C15.9141 18.2443 16.7282 17.9111 17.3328 17.3165C17.9375 16.7219 18.2844 15.9136 18.2987 15.0657Z" stroke="#414554" stroke-width="1.5" stroke-linecap="round" stroke-linejoin="round"/>
</svg>
