<svg width="18" height="18" viewBox="0 0 18 18" fill="none" xmlns="http://www.w3.org/2000/svg">
<path d="M8.19962 1.00098H15.9553C16.5325 1.00098 17.0001 1.46863 17.0001 2.04582V10.3873C17.0001 10.9658 16.5325 11.4334 15.9553 11.4334H9.61489M4.26025 5.30957C4.8316 5.30957 5.37955 5.0826 5.78356 4.67859C6.18756 4.27458 6.41453 3.72663 6.41453 3.15527C6.41453 2.58392 6.18756 2.03597 5.78356 1.63196C5.37955 1.22795 4.8316 1.00098 4.26025 1.00098C3.68889 1.00098 3.14094 1.22795 2.73693 1.63196C2.33293 2.03597 2.10596 2.58392 2.10596 3.15527C2.10596 3.72663 2.33293 4.27458 2.73693 4.67859C3.14094 5.0826 3.68889 5.30957 4.26025 5.30957Z" stroke="#0B75FF" stroke-linecap="round" stroke-linejoin="round"/>
<path d="M11.4607 7.18773C11.4607 6.48994 10.8946 5.92383 10.1968 5.92383H4.26005C3.39553 5.92415 2.56651 6.26773 1.95521 6.87904C1.3439 7.49035 1.00033 8.31937 1 9.18389V12.0772H2.39681L2.86323 16.9999H5.65686L6.73 8.45287H10.1968C10.8946 8.45287 11.4607 7.88676 11.4607 7.18773Z" stroke="#0B75FF" stroke-linecap="round" stroke-linejoin="round"/>
</svg>
