<svg width="22" height="22" viewBox="0 0 22 22" fill="none" xmlns="http://www.w3.org/2000/svg">
<path d="M19.0427 16.5C19.7296 16.5 20.2759 16.0678 20.7664 15.4633C21.7706 14.2261 20.1219 13.2374 19.4931 12.7532C18.8539 12.261 18.1402 11.9821 17.4165 11.9167M16.4999 10.0833C17.7655 10.0833 18.7915 9.05732 18.7915 7.79167C18.7915 6.52602 17.7655 5.5 16.4999 5.5" stroke="#0B75FF" stroke-width="1.5" stroke-linecap="round"/>
<path d="M2.95697 16.5C2.2701 16.5 1.72379 16.0678 1.23325 15.4633C0.229087 14.2261 1.87779 13.2374 2.50659 12.7532C3.14581 12.261 3.85954 11.9821 4.58317 11.9167M5.04151 10.0833C3.77586 10.0833 2.74984 9.05732 2.74984 7.79167C2.74984 6.52602 3.77586 5.5 5.04151 5.5" stroke="#0B75FF" stroke-width="1.5" stroke-linecap="round"/>
<path d="M7.40999 13.8521C6.47336 14.4312 4.01757 15.6138 5.51331 17.0936C6.24397 17.8165 7.05773 18.3335 8.08083 18.3335H13.9189C14.942 18.3335 15.7557 17.8165 16.4864 17.0936C17.9821 15.6138 15.5264 14.4312 14.5897 13.8521C12.3933 12.494 9.60634 12.494 7.40999 13.8521Z" stroke="#0B75FF" stroke-width="1.5" stroke-linecap="round" stroke-linejoin="round"/>
<path d="M14.2082 6.87484C14.2082 8.64675 12.7718 10.0832 10.9999 10.0832C9.22794 10.0832 7.7915 8.64675 7.7915 6.87484C7.7915 5.10292 9.22794 3.6665 10.9999 3.6665C12.7718 3.6665 14.2082 5.10292 14.2082 6.87484Z" stroke="#0B75FF" stroke-width="1.5"/>
</svg>
