<svg width="33" height="33" viewBox="0 0 33 33" fill="none" xmlns="http://www.w3.org/2000/svg">
<path d="M16.9583 29.5499C18.6774 29.5499 20.3797 29.2113 21.9679 28.5534C23.5562 27.8955 24.9993 26.9313 26.2149 25.7157C27.4305 24.5 28.3948 23.0569 29.0527 21.4687C29.7106 19.8804 30.0492 18.1781 30.0492 16.459C30.0492 14.7399 29.7106 13.0376 29.0527 11.4493C28.3948 9.86105 27.4305 8.41792 26.2149 7.20231C24.9993 5.98671 23.5562 5.02244 21.9679 4.36456C20.3797 3.70668 18.6774 3.36808 16.9583 3.36808C13.4863 3.36808 10.1566 4.74729 7.70158 7.20231C5.24656 9.65733 3.86734 12.9871 3.86734 16.459C3.86734 19.9309 5.24656 23.2606 7.70158 25.7157C10.1566 28.1707 13.4863 29.5499 16.9583 29.5499ZM32.9583 16.459C32.9583 25.2953 25.7946 32.459 16.9583 32.459C8.12189 32.459 0.958252 25.2953 0.958252 16.459C0.958252 7.62262 8.12189 0.458984 16.9583 0.458984C25.7946 0.458984 32.9583 7.62262 32.9583 16.459ZM21.3219 22.8793L15.5037 17.0612V7.00444H18.4128V15.8568L23.3786 20.8226L21.3219 22.8793Z" fill="#0B75FF" fill-opacity="0.5"/>
</svg>
