<svg width="18" height="17" viewBox="0 0 18 17" fill="none" xmlns="http://www.w3.org/2000/svg">
<mask id="path-1-inside-1_3660_2430" fill="white">
<path d="M11.2951 6.33333C12.1001 6.33333 12.7534 6.98667 12.7534 7.79167V10.5H12.7501V10.7083C12.7501 10.8741 12.6842 11.0331 12.567 11.1503C12.4498 11.2675 12.2908 11.3333 12.1251 11.3333C11.9593 11.3333 11.8004 11.2675 11.6831 11.1503C11.5659 11.0331 11.5001 10.8741 11.5001 10.7083V8.83333H11.5034V7.79167C11.5034 7.73641 11.4815 7.68342 11.4424 7.64435C11.4033 7.60528 11.3503 7.58333 11.2951 7.58333H6.71008C6.65483 7.58333 6.60184 7.60528 6.56277 7.64435C6.5237 7.68342 6.50175 7.73641 6.50175 7.79167V10.5H6.50008V10.7083C6.50008 10.8741 6.43423 11.0331 6.31702 11.1503C6.19981 11.2675 6.04084 11.3333 5.87508 11.3333C5.70932 11.3333 5.55035 11.2675 5.43314 11.1503C5.31593 11.0331 5.25008 10.8741 5.25008 10.7083V8.83333H5.25175V7.79167C5.25175 6.98667 5.90425 6.33333 6.71008 6.33333H11.2951ZM16.0834 7.79167V10.7083C16.0834 10.8741 16.1493 11.0331 16.2665 11.1503C16.3837 11.2675 16.5427 11.3333 16.7084 11.3333C16.8742 11.3333 17.0331 11.2675 17.1504 11.1503C17.2676 11.0331 17.3334 10.8741 17.3334 10.7083V7.79167C17.3334 7.40489 17.1798 7.03396 16.9063 6.76047C16.6328 6.48698 16.2619 6.33333 15.8751 6.33333H13.0626C13.3484 6.67917 13.5351 7.11 13.5776 7.58333H15.8751C15.9303 7.58333 15.9833 7.60528 16.0224 7.64435C16.0615 7.68342 16.0834 7.73641 16.0834 7.79167ZM0.666748 10.7083C0.666748 10.8741 0.732596 11.0331 0.849806 11.1503C0.967016 11.2675 1.12599 11.3333 1.29175 11.3333C1.45751 11.3333 1.61648 11.2675 1.73369 11.1503C1.8509 11.0331 1.91675 10.8741 1.91675 10.7083V7.79167C1.91675 7.73641 1.9387 7.68342 1.97777 7.64435C2.01684 7.60528 2.06983 7.58333 2.12508 7.58333H4.42758C4.46913 7.12423 4.64867 6.68846 4.94258 6.33333H2.12508C1.73831 6.33333 1.36737 6.48698 1.09388 6.76047C0.820394 7.03396 0.666748 7.40489 0.666748 7.79167V10.7083ZM9.00008 0.5C9.66312 0.5 10.299 0.763392 10.7678 1.23223C11.2367 1.70107 11.5001 2.33696 11.5001 3C11.5001 3.66304 11.2367 4.29893 10.7678 4.76777C10.299 5.23661 9.66312 5.5 9.00008 5.5C8.33704 5.5 7.70115 5.23661 7.23231 4.76777C6.76347 4.29893 6.50008 3.66304 6.50008 3C6.50008 2.33696 6.76347 1.70107 7.23231 1.23223C7.70115 0.763392 8.33704 0.5 9.00008 0.5ZM9.00008 1.75C8.66856 1.75 8.35062 1.8817 8.1162 2.11612C7.88178 2.35054 7.75008 2.66848 7.75008 3C7.75008 3.33152 7.88178 3.64946 8.1162 3.88388C8.35062 4.1183 8.66856 4.25 9.00008 4.25C9.3316 4.25 9.64954 4.1183 9.88396 3.88388C10.1184 3.64946 10.2501 3.33152 10.2501 3C10.2501 2.66848 10.1184 2.35054 9.88396 2.11612C9.64954 1.8817 9.3316 1.75 9.00008 1.75ZM14.4167 1.33333C14.9693 1.33333 15.4992 1.55283 15.8899 1.94353C16.2806 2.33423 16.5001 2.86413 16.5001 3.41667C16.5001 3.9692 16.2806 4.49911 15.8899 4.88981C15.4992 5.28051 14.9693 5.5 14.4167 5.5C13.8642 5.5 13.3343 5.28051 12.9436 4.88981C12.5529 4.49911 12.3334 3.9692 12.3334 3.41667C12.3334 2.86413 12.5529 2.33423 12.9436 1.94353C13.3343 1.55283 13.8642 1.33333 14.4167 1.33333ZM14.4167 2.58333C14.1957 2.58333 13.9838 2.67113 13.8275 2.82741C13.6712 2.98369 13.5834 3.19565 13.5834 3.41667C13.5834 3.63768 13.6712 3.84964 13.8275 4.00592C13.9838 4.1622 14.1957 4.25 14.4167 4.25C14.6378 4.25 14.8497 4.1622 15.006 4.00592C15.1623 3.84964 15.2501 3.63768 15.2501 3.41667C15.2501 3.19565 15.1623 2.98369 15.006 2.82741C14.8497 2.67113 14.6378 2.58333 14.4167 2.58333ZM3.58341 1.33333C4.13595 1.33333 4.66585 1.55283 5.05655 1.94353C5.44725 2.33423 5.66675 2.86413 5.66675 3.41667C5.66675 3.9692 5.44725 4.49911 5.05655 4.88981C4.66585 5.28051 4.13595 5.5 3.58341 5.5C3.03088 5.5 2.50098 5.28051 2.11028 4.88981C1.71957 4.49911 1.50008 3.9692 1.50008 3.41667C1.50008 2.86413 1.71957 2.33423 2.11028 1.94353C2.50098 1.55283 3.03088 1.33333 3.58341 1.33333ZM3.58341 2.58333C3.3624 2.58333 3.15044 2.67113 2.99416 2.82741C2.83788 2.98369 2.75008 3.19565 2.75008 3.41667C2.75008 3.63768 2.83788 3.84964 2.99416 4.00592C3.15044 4.1622 3.3624 4.25 3.58341 4.25C3.80443 4.25 4.01639 4.1622 4.17267 4.00592C4.32895 3.84964 4.41675 3.63768 4.41675 3.41667C4.41675 3.19565 4.32895 2.98369 4.17267 2.82741C4.01639 2.67113 3.80443 2.58333 3.58341 2.58333ZM1.29175 12.1667C1.12599 12.1667 0.967016 12.2325 0.849806 12.3497C0.732596 12.4669 0.666748 12.6259 0.666748 12.7917V13.2083C0.666748 14.0371 0.995988 14.832 1.58204 15.418C2.16809 16.0041 2.96295 16.3333 3.79175 16.3333H14.2084C15.0372 16.3333 15.8321 16.0041 16.4181 15.418C17.0042 14.832 17.3334 14.0371 17.3334 13.2083V12.7917C17.3334 12.6259 17.2676 12.4669 17.1504 12.3497C17.0331 12.2325 16.8742 12.1667 16.7084 12.1667H1.29175ZM3.79175 15.0833C3.33055 15.0833 2.88554 14.9133 2.54178 14.6059C2.19803 14.2984 1.97966 13.875 1.92841 13.4167H16.0717C16.0205 13.875 15.8021 14.2984 15.4584 14.6059C15.1146 14.9133 14.6696 15.0833 14.2084 15.0833H3.79175Z"/>
</mask>
<path d="M11.2951 6.33333C12.1001 6.33333 12.7534 6.98667 12.7534 7.79167V10.5H12.7501V10.7083C12.7501 10.8741 12.6842 11.0331 12.567 11.1503C12.4498 11.2675 12.2908 11.3333 12.1251 11.3333C11.9593 11.3333 11.8004 11.2675 11.6831 11.1503C11.5659 11.0331 11.5001 10.8741 11.5001 10.7083V8.83333H11.5034V7.79167C11.5034 7.73641 11.4815 7.68342 11.4424 7.64435C11.4033 7.60528 11.3503 7.58333 11.2951 7.58333H6.71008C6.65483 7.58333 6.60184 7.60528 6.56277 7.64435C6.5237 7.68342 6.50175 7.73641 6.50175 7.79167V10.5H6.50008V10.7083C6.50008 10.8741 6.43423 11.0331 6.31702 11.1503C6.19981 11.2675 6.04084 11.3333 5.87508 11.3333C5.70932 11.3333 5.55035 11.2675 5.43314 11.1503C5.31593 11.0331 5.25008 10.8741 5.25008 10.7083V8.83333H5.25175V7.79167C5.25175 6.98667 5.90425 6.33333 6.71008 6.33333H11.2951ZM16.0834 7.79167V10.7083C16.0834 10.8741 16.1493 11.0331 16.2665 11.1503C16.3837 11.2675 16.5427 11.3333 16.7084 11.3333C16.8742 11.3333 17.0331 11.2675 17.1504 11.1503C17.2676 11.0331 17.3334 10.8741 17.3334 10.7083V7.79167C17.3334 7.40489 17.1798 7.03396 16.9063 6.76047C16.6328 6.48698 16.2619 6.33333 15.8751 6.33333H13.0626C13.3484 6.67917 13.5351 7.11 13.5776 7.58333H15.8751C15.9303 7.58333 15.9833 7.60528 16.0224 7.64435C16.0615 7.68342 16.0834 7.73641 16.0834 7.79167ZM0.666748 10.7083C0.666748 10.8741 0.732596 11.0331 0.849806 11.1503C0.967016 11.2675 1.12599 11.3333 1.29175 11.3333C1.45751 11.3333 1.61648 11.2675 1.73369 11.1503C1.8509 11.0331 1.91675 10.8741 1.91675 10.7083V7.79167C1.91675 7.73641 1.9387 7.68342 1.97777 7.64435C2.01684 7.60528 2.06983 7.58333 2.12508 7.58333H4.42758C4.46913 7.12423 4.64867 6.68846 4.94258 6.33333H2.12508C1.73831 6.33333 1.36737 6.48698 1.09388 6.76047C0.820394 7.03396 0.666748 7.40489 0.666748 7.79167V10.7083ZM9.00008 0.5C9.66312 0.5 10.299 0.763392 10.7678 1.23223C11.2367 1.70107 11.5001 2.33696 11.5001 3C11.5001 3.66304 11.2367 4.29893 10.7678 4.76777C10.299 5.23661 9.66312 5.5 9.00008 5.5C8.33704 5.5 7.70115 5.23661 7.23231 4.76777C6.76347 4.29893 6.50008 3.66304 6.50008 3C6.50008 2.33696 6.76347 1.70107 7.23231 1.23223C7.70115 0.763392 8.33704 0.5 9.00008 0.5ZM9.00008 1.75C8.66856 1.75 8.35062 1.8817 8.1162 2.11612C7.88178 2.35054 7.75008 2.66848 7.75008 3C7.75008 3.33152 7.88178 3.64946 8.1162 3.88388C8.35062 4.1183 8.66856 4.25 9.00008 4.25C9.3316 4.25 9.64954 4.1183 9.88396 3.88388C10.1184 3.64946 10.2501 3.33152 10.2501 3C10.2501 2.66848 10.1184 2.35054 9.88396 2.11612C9.64954 1.8817 9.3316 1.75 9.00008 1.75ZM14.4167 1.33333C14.9693 1.33333 15.4992 1.55283 15.8899 1.94353C16.2806 2.33423 16.5001 2.86413 16.5001 3.41667C16.5001 3.9692 16.2806 4.49911 15.8899 4.88981C15.4992 5.28051 14.9693 5.5 14.4167 5.5C13.8642 5.5 13.3343 5.28051 12.9436 4.88981C12.5529 4.49911 12.3334 3.9692 12.3334 3.41667C12.3334 2.86413 12.5529 2.33423 12.9436 1.94353C13.3343 1.55283 13.8642 1.33333 14.4167 1.33333ZM14.4167 2.58333C14.1957 2.58333 13.9838 2.67113 13.8275 2.82741C13.6712 2.98369 13.5834 3.19565 13.5834 3.41667C13.5834 3.63768 13.6712 3.84964 13.8275 4.00592C13.9838 4.1622 14.1957 4.25 14.4167 4.25C14.6378 4.25 14.8497 4.1622 15.006 4.00592C15.1623 3.84964 15.2501 3.63768 15.2501 3.41667C15.2501 3.19565 15.1623 2.98369 15.006 2.82741C14.8497 2.67113 14.6378 2.58333 14.4167 2.58333ZM3.58341 1.33333C4.13595 1.33333 4.66585 1.55283 5.05655 1.94353C5.44725 2.33423 5.66675 2.86413 5.66675 3.41667C5.66675 3.9692 5.44725 4.49911 5.05655 4.88981C4.66585 5.28051 4.13595 5.5 3.58341 5.5C3.03088 5.5 2.50098 5.28051 2.11028 4.88981C1.71957 4.49911 1.50008 3.9692 1.50008 3.41667C1.50008 2.86413 1.71957 2.33423 2.11028 1.94353C2.50098 1.55283 3.03088 1.33333 3.58341 1.33333ZM3.58341 2.58333C3.3624 2.58333 3.15044 2.67113 2.99416 2.82741C2.83788 2.98369 2.75008 3.19565 2.75008 3.41667C2.75008 3.63768 2.83788 3.84964 2.99416 4.00592C3.15044 4.1622 3.3624 4.25 3.58341 4.25C3.80443 4.25 4.01639 4.1622 4.17267 4.00592C4.32895 3.84964 4.41675 3.63768 4.41675 3.41667C4.41675 3.19565 4.32895 2.98369 4.17267 2.82741C4.01639 2.67113 3.80443 2.58333 3.58341 2.58333ZM1.29175 12.1667C1.12599 12.1667 0.967016 12.2325 0.849806 12.3497C0.732596 12.4669 0.666748 12.6259 0.666748 12.7917V13.2083C0.666748 14.0371 0.995988 14.832 1.58204 15.418C2.16809 16.0041 2.96295 16.3333 3.79175 16.3333H14.2084C15.0372 16.3333 15.8321 16.0041 16.4181 15.418C17.0042 14.832 17.3334 14.0371 17.3334 13.2083V12.7917C17.3334 12.6259 17.2676 12.4669 17.1504 12.3497C17.0331 12.2325 16.8742 12.1667 16.7084 12.1667H1.29175ZM3.79175 15.0833C3.33055 15.0833 2.88554 14.9133 2.54178 14.6059C2.19803 14.2984 1.97966 13.875 1.92841 13.4167H16.0717C16.0205 13.875 15.8021 14.2984 15.4584 14.6059C15.1146 14.9133 14.6696 15.0833 14.2084 15.0833H3.79175Z" fill="#565555" stroke="white" stroke-width="0.2" mask="url(#path-1-inside-1_3660_2430)"/>
</svg>
