<svg width="20" height="20" viewBox="0 0 20 20" fill="none" xmlns="http://www.w3.org/2000/svg">
<mask id="path-1-inside-1_3886_11586" fill="white">
<path d="M12.2948 8.33333C13.0998 8.33333 13.7532 8.98667 13.7532 9.79167V12.5H13.7498V12.7083C13.7498 12.8741 13.684 13.0331 13.5668 13.1503C13.4496 13.2675 13.2906 13.3333 13.1248 13.3333C12.9591 13.3333 12.8001 13.2675 12.6829 13.1503C12.5657 13.0331 12.4998 12.8741 12.4998 12.7083V10.8333H12.5032V9.79167C12.5032 9.73641 12.4812 9.68342 12.4422 9.64435C12.4031 9.60528 12.3501 9.58333 12.2948 9.58333H7.70984C7.65458 9.58333 7.60159 9.60528 7.56252 9.64435C7.52345 9.68342 7.5015 9.73641 7.5015 9.79167V12.5H7.49984V12.7083C7.49984 12.8741 7.43399 13.0331 7.31678 13.1503C7.19957 13.2675 7.0406 13.3333 6.87484 13.3333C6.70908 13.3333 6.55011 13.2675 6.4329 13.1503C6.31569 13.0331 6.24984 12.8741 6.24984 12.7083V10.8333H6.2515V9.79167C6.2515 8.98667 6.904 8.33333 7.70984 8.33333H12.2948ZM17.0832 9.79167V12.7083C17.0832 12.8741 17.149 13.0331 17.2662 13.1503C17.3834 13.2675 17.5424 13.3333 17.7082 13.3333C17.8739 13.3333 18.0329 13.2675 18.1501 13.1503C18.2673 13.0331 18.3332 12.8741 18.3332 12.7083V9.79167C18.3332 9.40489 18.1795 9.03396 17.906 8.76047C17.6325 8.48698 17.2616 8.33333 16.8748 8.33333H14.0623C14.3482 8.67917 14.5348 9.11 14.5773 9.58333H16.8748C16.9301 9.58333 16.9831 9.60528 17.0222 9.64435C17.0612 9.68342 17.0832 9.73641 17.0832 9.79167ZM1.6665 12.7083C1.6665 12.8741 1.73235 13.0331 1.84956 13.1503C1.96677 13.2675 2.12574 13.3333 2.2915 13.3333C2.45726 13.3333 2.61624 13.2675 2.73345 13.1503C2.85066 13.0331 2.9165 12.8741 2.9165 12.7083V9.79167C2.9165 9.73641 2.93845 9.68342 2.97752 9.64435C3.01659 9.60528 3.06958 9.58333 3.12484 9.58333H5.42734C5.46889 9.12423 5.64843 8.68846 5.94234 8.33333H3.12484C2.73806 8.33333 2.36713 8.48698 2.09364 8.76047C1.82015 9.03396 1.6665 9.40489 1.6665 9.79167V12.7083ZM9.99984 2.5C10.6629 2.5 11.2988 2.76339 11.7676 3.23223C12.2364 3.70107 12.4998 4.33696 12.4998 5C12.4998 5.66304 12.2364 6.29893 11.7676 6.76777C11.2988 7.23661 10.6629 7.5 9.99984 7.5C9.3368 7.5 8.70091 7.23661 8.23207 6.76777C7.76323 6.29893 7.49984 5.66304 7.49984 5C7.49984 4.33696 7.76323 3.70107 8.23207 3.23223C8.70091 2.76339 9.3368 2.5 9.99984 2.5ZM9.99984 3.75C9.66832 3.75 9.35037 3.8817 9.11595 4.11612C8.88153 4.35054 8.74984 4.66848 8.74984 5C8.74984 5.33152 8.88153 5.64946 9.11595 5.88388C9.35037 6.1183 9.66832 6.25 9.99984 6.25C10.3314 6.25 10.6493 6.1183 10.8837 5.88388C11.1181 5.64946 11.2498 5.33152 11.2498 5C11.2498 4.66848 11.1181 4.35054 10.8837 4.11612C10.6493 3.8817 10.3314 3.75 9.99984 3.75ZM15.4165 3.33333C15.969 3.33333 16.4989 3.55283 16.8896 3.94353C17.2803 4.33423 17.4998 4.86413 17.4998 5.41667C17.4998 5.9692 17.2803 6.49911 16.8896 6.88981C16.4989 7.28051 15.969 7.5 15.4165 7.5C14.864 7.5 14.3341 7.28051 13.9434 6.88981C13.5527 6.49911 13.3332 5.9692 13.3332 5.41667C13.3332 4.86413 13.5527 4.33423 13.9434 3.94353C14.3341 3.55283 14.864 3.33333 15.4165 3.33333ZM15.4165 4.58333C15.1955 4.58333 14.9835 4.67113 14.8272 4.82741C14.671 4.98369 14.5832 5.19565 14.5832 5.41667C14.5832 5.63768 14.671 5.84964 14.8272 6.00592C14.9835 6.1622 15.1955 6.25 15.4165 6.25C15.6375 6.25 15.8495 6.1622 16.0058 6.00592C16.162 5.84964 16.2498 5.63768 16.2498 5.41667C16.2498 5.19565 16.162 4.98369 16.0058 4.82741C15.8495 4.67113 15.6375 4.58333 15.4165 4.58333ZM4.58317 3.33333C5.1357 3.33333 5.66561 3.55283 6.05631 3.94353C6.44701 4.33423 6.6665 4.86413 6.6665 5.41667C6.6665 5.9692 6.44701 6.49911 6.05631 6.88981C5.66561 7.28051 5.1357 7.5 4.58317 7.5C4.03064 7.5 3.50073 7.28051 3.11003 6.88981C2.71933 6.49911 2.49984 5.9692 2.49984 5.41667C2.49984 4.86413 2.71933 4.33423 3.11003 3.94353C3.50073 3.55283 4.03064 3.33333 4.58317 3.33333ZM4.58317 4.58333C4.36216 4.58333 4.1502 4.67113 3.99392 4.82741C3.83763 4.98369 3.74984 5.19565 3.74984 5.41667C3.74984 5.63768 3.83763 5.84964 3.99392 6.00592C4.1502 6.1622 4.36216 6.25 4.58317 6.25C4.80418 6.25 5.01615 6.1622 5.17243 6.00592C5.32871 5.84964 5.4165 5.63768 5.4165 5.41667C5.4165 5.19565 5.32871 4.98369 5.17243 4.82741C5.01615 4.67113 4.80418 4.58333 4.58317 4.58333ZM2.2915 14.1667C2.12574 14.1667 1.96677 14.2325 1.84956 14.3497C1.73235 14.4669 1.6665 14.6259 1.6665 14.7917V15.2083C1.6665 16.0371 1.99574 16.832 2.5818 17.418C3.16785 18.0041 3.9627 18.3333 4.7915 18.3333H15.2082C16.037 18.3333 16.8318 18.0041 17.4179 17.418C18.0039 16.832 18.3332 16.0371 18.3332 15.2083V14.7917C18.3332 14.6259 18.2673 14.4669 18.1501 14.3497C18.0329 14.2325 17.8739 14.1667 17.7082 14.1667H2.2915ZM4.7915 17.0833C4.33031 17.0833 3.88529 16.9133 3.54154 16.6059C3.19779 16.2984 2.97941 15.875 2.92817 15.4167H17.0715C17.0203 15.875 16.8019 16.2984 16.4581 16.6059C16.1144 16.9133 15.6694 17.0833 15.2082 17.0833H4.7915Z"/>
</mask>
<path d="M12.2948 8.33333C13.0998 8.33333 13.7532 8.98667 13.7532 9.79167V12.5H13.7498V12.7083C13.7498 12.8741 13.684 13.0331 13.5668 13.1503C13.4496 13.2675 13.2906 13.3333 13.1248 13.3333C12.9591 13.3333 12.8001 13.2675 12.6829 13.1503C12.5657 13.0331 12.4998 12.8741 12.4998 12.7083V10.8333H12.5032V9.79167C12.5032 9.73641 12.4812 9.68342 12.4422 9.64435C12.4031 9.60528 12.3501 9.58333 12.2948 9.58333H7.70984C7.65458 9.58333 7.60159 9.60528 7.56252 9.64435C7.52345 9.68342 7.5015 9.73641 7.5015 9.79167V12.5H7.49984V12.7083C7.49984 12.8741 7.43399 13.0331 7.31678 13.1503C7.19957 13.2675 7.0406 13.3333 6.87484 13.3333C6.70908 13.3333 6.55011 13.2675 6.4329 13.1503C6.31569 13.0331 6.24984 12.8741 6.24984 12.7083V10.8333H6.2515V9.79167C6.2515 8.98667 6.904 8.33333 7.70984 8.33333H12.2948ZM17.0832 9.79167V12.7083C17.0832 12.8741 17.149 13.0331 17.2662 13.1503C17.3834 13.2675 17.5424 13.3333 17.7082 13.3333C17.8739 13.3333 18.0329 13.2675 18.1501 13.1503C18.2673 13.0331 18.3332 12.8741 18.3332 12.7083V9.79167C18.3332 9.40489 18.1795 9.03396 17.906 8.76047C17.6325 8.48698 17.2616 8.33333 16.8748 8.33333H14.0623C14.3482 8.67917 14.5348 9.11 14.5773 9.58333H16.8748C16.9301 9.58333 16.9831 9.60528 17.0222 9.64435C17.0612 9.68342 17.0832 9.73641 17.0832 9.79167ZM1.6665 12.7083C1.6665 12.8741 1.73235 13.0331 1.84956 13.1503C1.96677 13.2675 2.12574 13.3333 2.2915 13.3333C2.45726 13.3333 2.61624 13.2675 2.73345 13.1503C2.85066 13.0331 2.9165 12.8741 2.9165 12.7083V9.79167C2.9165 9.73641 2.93845 9.68342 2.97752 9.64435C3.01659 9.60528 3.06958 9.58333 3.12484 9.58333H5.42734C5.46889 9.12423 5.64843 8.68846 5.94234 8.33333H3.12484C2.73806 8.33333 2.36713 8.48698 2.09364 8.76047C1.82015 9.03396 1.6665 9.40489 1.6665 9.79167V12.7083ZM9.99984 2.5C10.6629 2.5 11.2988 2.76339 11.7676 3.23223C12.2364 3.70107 12.4998 4.33696 12.4998 5C12.4998 5.66304 12.2364 6.29893 11.7676 6.76777C11.2988 7.23661 10.6629 7.5 9.99984 7.5C9.3368 7.5 8.70091 7.23661 8.23207 6.76777C7.76323 6.29893 7.49984 5.66304 7.49984 5C7.49984 4.33696 7.76323 3.70107 8.23207 3.23223C8.70091 2.76339 9.3368 2.5 9.99984 2.5ZM9.99984 3.75C9.66832 3.75 9.35037 3.8817 9.11595 4.11612C8.88153 4.35054 8.74984 4.66848 8.74984 5C8.74984 5.33152 8.88153 5.64946 9.11595 5.88388C9.35037 6.1183 9.66832 6.25 9.99984 6.25C10.3314 6.25 10.6493 6.1183 10.8837 5.88388C11.1181 5.64946 11.2498 5.33152 11.2498 5C11.2498 4.66848 11.1181 4.35054 10.8837 4.11612C10.6493 3.8817 10.3314 3.75 9.99984 3.75ZM15.4165 3.33333C15.969 3.33333 16.4989 3.55283 16.8896 3.94353C17.2803 4.33423 17.4998 4.86413 17.4998 5.41667C17.4998 5.9692 17.2803 6.49911 16.8896 6.88981C16.4989 7.28051 15.969 7.5 15.4165 7.5C14.864 7.5 14.3341 7.28051 13.9434 6.88981C13.5527 6.49911 13.3332 5.9692 13.3332 5.41667C13.3332 4.86413 13.5527 4.33423 13.9434 3.94353C14.3341 3.55283 14.864 3.33333 15.4165 3.33333ZM15.4165 4.58333C15.1955 4.58333 14.9835 4.67113 14.8272 4.82741C14.671 4.98369 14.5832 5.19565 14.5832 5.41667C14.5832 5.63768 14.671 5.84964 14.8272 6.00592C14.9835 6.1622 15.1955 6.25 15.4165 6.25C15.6375 6.25 15.8495 6.1622 16.0058 6.00592C16.162 5.84964 16.2498 5.63768 16.2498 5.41667C16.2498 5.19565 16.162 4.98369 16.0058 4.82741C15.8495 4.67113 15.6375 4.58333 15.4165 4.58333ZM4.58317 3.33333C5.1357 3.33333 5.66561 3.55283 6.05631 3.94353C6.44701 4.33423 6.6665 4.86413 6.6665 5.41667C6.6665 5.9692 6.44701 6.49911 6.05631 6.88981C5.66561 7.28051 5.1357 7.5 4.58317 7.5C4.03064 7.5 3.50073 7.28051 3.11003 6.88981C2.71933 6.49911 2.49984 5.9692 2.49984 5.41667C2.49984 4.86413 2.71933 4.33423 3.11003 3.94353C3.50073 3.55283 4.03064 3.33333 4.58317 3.33333ZM4.58317 4.58333C4.36216 4.58333 4.1502 4.67113 3.99392 4.82741C3.83763 4.98369 3.74984 5.19565 3.74984 5.41667C3.74984 5.63768 3.83763 5.84964 3.99392 6.00592C4.1502 6.1622 4.36216 6.25 4.58317 6.25C4.80418 6.25 5.01615 6.1622 5.17243 6.00592C5.32871 5.84964 5.4165 5.63768 5.4165 5.41667C5.4165 5.19565 5.32871 4.98369 5.17243 4.82741C5.01615 4.67113 4.80418 4.58333 4.58317 4.58333ZM2.2915 14.1667C2.12574 14.1667 1.96677 14.2325 1.84956 14.3497C1.73235 14.4669 1.6665 14.6259 1.6665 14.7917V15.2083C1.6665 16.0371 1.99574 16.832 2.5818 17.418C3.16785 18.0041 3.9627 18.3333 4.7915 18.3333H15.2082C16.037 18.3333 16.8318 18.0041 17.4179 17.418C18.0039 16.832 18.3332 16.0371 18.3332 15.2083V14.7917C18.3332 14.6259 18.2673 14.4669 18.1501 14.3497C18.0329 14.2325 17.8739 14.1667 17.7082 14.1667H2.2915ZM4.7915 17.0833C4.33031 17.0833 3.88529 16.9133 3.54154 16.6059C3.19779 16.2984 2.97941 15.875 2.92817 15.4167H17.0715C17.0203 15.875 16.8019 16.2984 16.4581 16.6059C16.1144 16.9133 15.6694 17.0833 15.2082 17.0833H4.7915Z" fill="#0B75FF" stroke="white" stroke-width="0.2" mask="url(#path-1-inside-1_3886_11586)"/>
</svg>
