<svg width="16" height="18" viewBox="0 0 16 18" fill="none" xmlns="http://www.w3.org/2000/svg">
<path d="M2.25 1.35C2.05109 1.35 1.86032 1.42112 1.71967 1.5477C1.57902 1.67429 1.5 1.84598 1.5 2.025V16.65H3.5V14.175C3.5 13.554 4.06 13.05 4.75 13.05H11.25C11.94 13.05 12.5 13.554 12.5 14.175V16.65H14.5V8.775C14.5 8.59598 14.421 8.42429 14.2803 8.2977C14.1397 8.17112 13.9489 8.1 13.75 8.1H11.75C11.5511 8.1 11.3603 8.02888 11.2197 7.9023C11.079 7.77571 11 7.60402 11 7.425V2.025C11 1.84598 10.921 1.67429 10.7803 1.5477C10.6397 1.42112 10.4489 1.35 10.25 1.35H2.25ZM5 14.4V16.65H7.25V14.4H5ZM8.75 14.4V16.65H11V14.4H8.75ZM15.25 18H0.75C0.551088 18 0.360322 17.9289 0.21967 17.8023C0.0790175 17.6757 0 17.504 0 17.325V2.025C0 1.48794 0.237053 0.97287 0.65901 0.593109C1.08097 0.213348 1.65326 0 2.25 0H10.25C10.8467 0 11.419 0.213348 11.841 0.593109C12.2629 0.97287 12.5 1.48794 12.5 2.025V6.75H13.75C14.0455 6.75 14.3381 6.80238 14.611 6.90414C14.884 7.00591 15.1321 7.15507 15.341 7.34311C15.5499 7.53115 15.7157 7.75438 15.8287 8.00007C15.9418 8.24575 16 8.50907 16 8.775V17.325C16 17.504 15.921 17.6757 15.7803 17.8023C15.6397 17.9289 15.4489 18 15.25 18ZM3.5 4.05C3.5 3.81131 3.60536 3.58239 3.79289 3.4136C3.98043 3.24482 4.23478 3.15 4.5 3.15C4.76522 3.15 5.01957 3.24482 5.20711 3.4136C5.39464 3.58239 5.5 3.81131 5.5 4.05C5.5 4.28869 5.39464 4.51761 5.20711 4.6864C5.01957 4.85518 4.76522 4.95 4.5 4.95C4.23478 4.95 3.98043 4.85518 3.79289 4.6864C3.60536 4.51761 3.5 4.28869 3.5 4.05ZM4.5 9.45C4.23478 9.45 3.98043 9.54482 3.79289 9.7136C3.60536 9.88239 3.5 10.1113 3.5 10.35C3.5 10.5887 3.60536 10.8176 3.79289 10.9864C3.98043 11.1552 4.23478 11.25 4.5 11.25C4.76522 11.25 5.01957 11.1552 5.20711 10.9864C5.39464 10.8176 5.5 10.5887 5.5 10.35C5.5 10.1113 5.39464 9.88239 5.20711 9.7136C5.01957 9.54482 4.76522 9.45 4.5 9.45ZM4.5 6.3C4.23478 6.3 3.98043 6.39482 3.79289 6.5636C3.60536 6.73239 3.5 6.96131 3.5 7.2C3.5 7.43869 3.60536 7.66761 3.79289 7.8364C3.98043 8.00518 4.23478 8.1 4.5 8.1C4.76522 8.1 5.01957 8.00518 5.20711 7.8364C5.39464 7.66761 5.5 7.43869 5.5 7.2C5.5 6.96131 5.39464 6.73239 5.20711 6.5636C5.01957 6.39482 4.76522 6.3 4.5 6.3ZM8 3.15C7.73478 3.15 7.48043 3.24482 7.29289 3.4136C7.10536 3.58239 7 3.81131 7 4.05C7 4.28869 7.10536 4.51761 7.29289 4.6864C7.48043 4.85518 7.73478 4.95 8 4.95C8.26522 4.95 8.51957 4.85518 8.70711 4.6864C8.89464 4.51761 9 4.28869 9 4.05C9 3.81131 8.89464 3.58239 8.70711 3.4136C8.51957 3.24482 8.26522 3.15 8 3.15ZM8 9.45C7.73478 9.45 7.48043 9.54482 7.29289 9.7136C7.10536 9.88239 7 10.1113 7 10.35C7 10.5887 7.10536 10.8176 7.29289 10.9864C7.48043 11.1552 7.73478 11.25 8 11.25C8.26522 11.25 8.51957 11.1552 8.70711 10.9864C8.89464 10.8176 9 10.5887 9 10.35C9 10.1113 8.89464 9.88239 8.70711 9.7136C8.51957 9.54482 8.26522 9.45 8 9.45ZM11.5 9.45C11.2348 9.45 10.9804 9.54482 10.7929 9.7136C10.6054 9.88239 10.5 10.1113 10.5 10.35C10.5 10.5887 10.6054 10.8176 10.7929 10.9864C10.9804 11.1552 11.2348 11.25 11.5 11.25C11.7652 11.25 12.0196 11.1552 12.2071 10.9864C12.3946 10.8176 12.5 10.5887 12.5 10.35C12.5 10.1113 12.3946 9.88239 12.2071 9.7136C12.0196 9.54482 11.7652 9.45 11.5 9.45ZM8 6.3C7.73478 6.3 7.48043 6.39482 7.29289 6.5636C7.10536 6.73239 7 6.96131 7 7.2C7 7.43869 7.10536 7.66761 7.29289 7.8364C7.48043 8.00518 7.73478 8.1 8 8.1C8.26522 8.1 8.51957 8.00518 8.70711 7.8364C8.89464 7.66761 9 7.43869 9 7.2C9 6.96131 8.89464 6.73239 8.70711 6.5636C8.51957 6.39482 8.26522 6.3 8 6.3Z" fill="#414554"/>
</svg>
