<svg width="12" height="14" viewBox="0 0 12 14" fill="none" xmlns="http://www.w3.org/2000/svg">
<path d="M4 11C3.63333 11 3.31956 10.8696 3.05867 10.6087C2.79778 10.3478 2.66711 10.0338 2.66667 9.66671V1.66671C2.66667 1.30004 2.79733 0.986263 3.05867 0.725374C3.32 0.464485 3.63378 0.333818 4 0.333374H10C10.3667 0.333374 10.6807 0.464041 10.942 0.725374C11.2033 0.986707 11.3338 1.30049 11.3333 1.66671V9.66671C11.3333 10.0334 11.2029 10.3474 10.942 10.6087C10.6811 10.87 10.3671 11.0005 10 11H4ZM4 9.66671H10V1.66671H4V9.66671ZM1.33333 13.6667C0.966667 13.6667 0.652889 13.5363 0.392 13.2754C0.131111 13.0145 0.000444444 12.7005 0 12.3334V3.00004H1.33333V12.3334H8.66667V13.6667H1.33333Z" fill="#565555"/>
</svg>
