<svg width="48" height="48" viewBox="0 0 48 48" fill="none" xmlns="http://www.w3.org/2000/svg">
<rect x="0.25" y="0.25" width="47.5" height="47.5" rx="23.75" fill="#FE2929" fill-opacity="0.1"/>
<rect x="0.25" y="0.25" width="47.5" height="47.5" rx="23.75" stroke="#D03710" stroke-width="0.5"/>
<path d="M17.625 34.875C16.9604 34.875 16.3917 34.6386 15.9188 34.1657C15.446 33.6928 15.2091 33.1237 15.2083 32.4583V16.75H14V14.3333H20.0417V13.125H27.2917V14.3333H33.3333V16.75H32.125V32.4583C32.125 33.1229 31.8886 33.692 31.4157 34.1657C30.9428 34.6394 30.3737 34.8758 29.7083 34.875H17.625ZM29.7083 16.75H17.625V32.4583H29.7083V16.75ZM20.0417 30.0417H22.4583V19.1667H20.0417V30.0417ZM24.875 30.0417H27.2917V19.1667H24.875V30.0417Z" fill="#D03710"/>
</svg>
