<svg width="31" height="31" viewBox="0 0 31 31" fill="none" xmlns="http://www.w3.org/2000/svg">
<path d="M14.1825 5.42555C15.595 5.42555 16.74 4.28051 16.74 2.86805C16.74 1.45558 15.595 0.310547 14.1825 0.310547C12.77 0.310547 11.625 1.45558 11.625 2.86805C11.625 4.28051 12.77 5.42555 14.1825 5.42555Z" fill="#0B75FF"/>
<path d="M20.4059 19.8392L16.7424 9.77228L16.7213 9.66874C16.7213 9.5218 16.8447 9.40276 16.9984 9.40276C17.1292 9.40276 17.239 9.49018 17.2681 9.60674L19.7587 16.1192C19.9242 16.4918 20.605 16.7392 21.0526 16.7392C21.6509 16.7392 21.7129 15.5643 21.6999 15.4992L19.2093 9.07788C18.993 7.63886 17.5397 6.19922 15.8812 6.19922H12.6355C10.977 6.19922 9.41582 7.63886 9.19944 9.07788L6.8205 15.4992C6.76656 15.6226 6.8205 16.7392 7.46716 16.7392C7.96998 16.7392 8.63896 16.5638 8.7611 16.1192L11.1636 9.57884C11.1843 9.52662 11.2203 9.48188 11.2669 9.45046C11.3135 9.41904 11.3684 9.40242 11.4246 9.40276C11.5778 9.40276 11.7011 9.5218 11.7011 9.66812L11.6838 9.76298L8.11444 19.8392C8.10762 19.869 8.11444 20.4288 8.11444 20.4592C8.11444 20.6737 8.63214 21.0792 8.8572 21.0792H11.1599V29.1981C11.1599 29.8429 11.7278 30.3792 12.3999 30.3792C13.072 30.3792 13.6399 29.8423 13.6399 29.1981V21.0736C13.6399 20.8982 14.8799 20.9038 14.8799 21.0792V29.1392C14.8799 29.784 15.4484 30.3792 16.1199 30.3792C16.7932 30.3792 17.3599 29.7834 17.3599 29.1392V21.0792H19.7587C19.9831 21.0792 20.4059 20.6737 20.4059 20.4592C20.4059 20.4096 20.4239 19.882 20.4059 19.8392Z" fill="#0B75FF"/>
</svg>
