<svg width="19" height="19" viewBox="0 0 19 19" fill="none" xmlns="http://www.w3.org/2000/svg">
<path d="M9.78967 9.7168C8.96467 9.7168 8.25842 9.42305 7.67092 8.83555C7.08342 8.24805 6.78967 7.5418 6.78967 6.7168C6.78967 5.8918 7.08342 5.18555 7.67092 4.59805C8.25842 4.01055 8.96467 3.7168 9.78967 3.7168C10.6147 3.7168 11.3209 4.01055 11.9084 4.59805C12.4959 5.18555 12.7897 5.8918 12.7897 6.7168C12.7897 7.5418 12.4959 8.24805 11.9084 8.83555C11.3209 9.42305 10.6147 9.7168 9.78967 9.7168ZM3.78967 15.7168V13.6168C3.78967 13.1918 3.89917 12.8013 4.11817 12.4453C4.33717 12.0893 4.62767 11.8173 4.98967 11.6293C5.76467 11.2418 6.55217 10.9513 7.35217 10.7578C8.15217 10.5643 8.96467 10.4673 9.78967 10.4668C10.6147 10.4663 11.4272 10.5633 12.2272 10.7578C13.0272 10.9523 13.8147 11.2428 14.5897 11.6293C14.9522 11.8168 15.2429 12.0888 15.4619 12.4453C15.6809 12.8018 15.7902 13.1923 15.7897 13.6168V15.7168H3.78967ZM5.28967 14.2168H14.2897V13.6168C14.2897 13.4793 14.2554 13.3543 14.1869 13.2418C14.1184 13.1293 14.0277 13.0418 13.9147 12.9793C13.2397 12.6418 12.5584 12.3888 11.8709 12.2203C11.1834 12.0518 10.4897 11.9673 9.78967 11.9668C9.08967 11.9663 8.39592 12.0508 7.70842 12.2203C7.02092 12.3898 6.33967 12.6428 5.66467 12.9793C5.55217 13.0418 5.46142 13.1293 5.39242 13.2418C5.32342 13.3543 5.28917 13.4793 5.28967 13.6168V14.2168ZM9.78967 8.2168C10.2022 8.2168 10.5554 8.07005 10.8494 7.77655C11.1434 7.48305 11.2902 7.1298 11.2897 6.7168C11.2892 6.3038 11.1424 5.9508 10.8494 5.6578C10.5564 5.3648 10.2032 5.2178 9.78967 5.2168C9.37617 5.2158 9.02317 5.3628 8.73067 5.6578C8.43817 5.9528 8.29117 6.3058 8.28967 6.7168C8.28817 7.1278 8.43517 7.48105 8.73067 7.77655C9.02617 8.07205 9.37917 8.2188 9.78967 8.2168Z" fill="black"/>
</svg>
