<svg width="12" height="15" viewBox="0 0 12 15" fill="none" xmlns="http://www.w3.org/2000/svg">
<path fill-rule="evenodd" clip-rule="evenodd" d="M2.8335 6.66667C2.8335 5.82681 3.16713 5.02136 3.76099 4.4275C4.35486 3.83363 5.16031 3.5 6.00016 3.5C6.84001 3.5 7.64547 3.83363 8.23933 4.4275C8.8332 5.02136 9.16683 5.82681 9.16683 6.66667C9.16683 7.50652 8.8332 8.31197 8.23933 8.90584C7.64547 9.4997 6.84001 9.83333 6.00016 9.83333C5.16031 9.83333 4.35486 9.4997 3.76099 8.90584C3.16713 8.31197 2.8335 7.50652 2.8335 6.66667ZM6.00016 4.5C5.42553 4.5 4.87443 4.72827 4.4681 5.1346C4.06177 5.54093 3.8335 6.09203 3.8335 6.66667C3.8335 7.2413 4.06177 7.7924 4.4681 8.19873C4.87443 8.60506 5.42553 8.83333 6.00016 8.83333C6.5748 8.83333 7.1259 8.60506 7.53223 8.19873C7.93856 7.7924 8.16683 7.2413 8.16683 6.66667C8.16683 6.09203 7.93856 5.54093 7.53223 5.1346C7.1259 4.72827 6.5748 4.5 6.00016 4.5Z" fill="#9C9791"/>
<path fill-rule="evenodd" clip-rule="evenodd" d="M0.349318 5.90434C0.463569 4.52232 1.09319 3.23376 2.11325 2.29434C3.13331 1.35492 4.46925 0.833312 5.85599 0.833008H6.14399C7.53072 0.833312 8.86666 1.35492 9.88672 2.29434C10.9068 3.23376 11.5364 4.52232 11.6507 5.90434C11.7777 7.44389 11.3021 8.97265 10.324 10.1683L7.12865 14.0757C6.99191 14.2429 6.81971 14.3776 6.62451 14.4702C6.42932 14.5627 6.216 14.6107 5.99999 14.6107C5.78397 14.6107 5.57065 14.5627 5.37546 14.4702C5.18026 14.3776 5.00807 14.2429 4.87132 14.0757L1.67599 10.1683C0.697875 8.97265 0.22223 7.44389 0.349318 5.90434ZM5.85599 1.83301C4.7204 1.83349 3.62647 2.26077 2.79119 3.03011C1.95591 3.79944 1.44031 4.85462 1.34665 5.98634C1.24084 7.2676 1.63665 8.5399 2.45065 9.53501L5.64599 13.443C5.68894 13.4956 5.74304 13.5379 5.80438 13.567C5.86572 13.5961 5.93276 13.6112 6.00065 13.6112C6.06854 13.6112 6.13558 13.5961 6.19692 13.567C6.25826 13.5379 6.31236 13.4956 6.35532 13.443L9.55065 9.53501C10.3642 8.5397 10.7595 7.26743 10.6533 5.98634C10.5597 4.85451 10.044 3.79923 9.20854 3.02988C8.37312 2.26053 7.27902 1.83332 6.14332 1.83301H5.85599Z" fill="#9C9791"/>
</svg>
