<svg width="14" height="16" viewBox="0 0 14 16" fill="none" xmlns="http://www.w3.org/2000/svg">
<path d="M3.68341 4.17171C3.68341 4.52028 3.82188 4.85457 4.06836 5.10105C4.31483 5.34752 4.64913 5.48599 4.9977 5.48599C5.34627 5.48599 5.68056 5.34752 5.92704 5.10105C6.17351 4.85457 6.31198 4.52028 6.31198 4.17171C6.31198 3.82314 6.17351 3.48884 5.92704 3.24237C5.68056 2.99589 5.34627 2.85742 4.9977 2.85742C4.64913 2.85742 4.31483 2.99589 4.06836 3.24237C3.82188 3.48884 3.68341 3.82314 3.68341 4.17171Z" stroke="#0B75FF" stroke-linecap="round" stroke-linejoin="round"/>
<path d="M3 6.78885C3.19729 6.40297 3.49098 6.07463 3.85257 5.83571C4.20229 5.60714 4.59771 5.48828 4.99886 5.48828C5.4 5.48828 5.79543 5.60714 6.14514 5.83571C6.496 6.06314 6.78857 6.39114 6.99771 6.78885" stroke="#0B75FF" stroke-linecap="round" stroke-linejoin="round"/>
<path d="M13.2857 14.2856C13.2857 14.5887 13.1653 14.8794 12.951 15.0937C12.7367 15.308 12.446 15.4284 12.1429 15.4284H1.85715C1.55405 15.4284 1.26336 15.308 1.04903 15.0937C0.834702 14.8794 0.714294 14.5887 0.714294 14.2856V1.71415C0.714294 1.41104 0.834702 1.12035 1.04903 0.906024C1.26336 0.691697 1.55405 0.571289 1.85715 0.571289H9.28572L13.2857 4.57129V14.2856Z" stroke="#0B75FF" stroke-linecap="round" stroke-linejoin="round"/>
<path d="M3 9.71387H11M3 12.571H7.57143" stroke="#0B75FF" stroke-linecap="round"/>
</svg>
