<svg width="12" height="14" viewBox="0 0 12 14" fill="none" xmlns="http://www.w3.org/2000/svg">
<path d="M6.83342 3.66671C6.83342 3.84352 6.76318 4.01309 6.63815 4.13811C6.51313 4.26314 6.34356 4.33337 6.16675 4.33337C5.98994 4.33337 5.82037 4.26314 5.69534 4.13811C5.57032 4.01309 5.50008 3.84352 5.50008 3.66671C5.50008 3.4899 5.57032 3.32033 5.69534 3.1953C5.82037 3.07028 5.98994 3.00004 6.16675 3.00004C6.34356 3.00004 6.51313 3.07028 6.63815 3.1953C6.76318 3.32033 6.83342 3.4899 6.83342 3.66671ZM5.66675 5.50004V8.83337C5.66675 8.96598 5.71943 9.09316 5.8132 9.18693C5.90696 9.28069 6.03414 9.33337 6.16675 9.33337C6.29936 9.33337 6.42653 9.28069 6.5203 9.18693C6.61407 9.09316 6.66675 8.96598 6.66675 8.83337V5.50004C6.66675 5.36743 6.61407 5.24026 6.5203 5.14649C6.42653 5.05272 6.29936 5.00004 6.16675 5.00004C6.03414 5.00004 5.90696 5.05272 5.8132 5.14649C5.71943 5.24026 5.66675 5.36743 5.66675 5.50004ZM0.666748 2.00004C0.666748 1.55801 0.842343 1.13409 1.1549 0.821529C1.46746 0.508969 1.89139 0.333374 2.33341 0.333374H10.0001C10.219 0.333374 10.4357 0.376484 10.6379 0.460241C10.8401 0.543999 11.0238 0.666765 11.1786 0.821529C11.3334 0.976294 11.4561 1.16003 11.5399 1.36223C11.6236 1.56444 11.6667 1.78117 11.6667 2.00004V11.5C11.6667 11.6326 11.6141 11.7598 11.5203 11.8536C11.4265 11.9474 11.2994 12 11.1667 12H1.66675C1.66675 12.1769 1.73699 12.3464 1.86201 12.4714C1.98703 12.5965 2.1566 12.6667 2.33341 12.6667H11.1667C11.2994 12.6667 11.4265 12.7194 11.5203 12.8132C11.6141 12.9069 11.6667 13.0341 11.6667 13.1667C11.6667 13.2993 11.6141 13.4265 11.5203 13.5203C11.4265 13.614 11.2994 13.6667 11.1667 13.6667H2.33341C1.89139 13.6667 1.46746 13.4911 1.1549 13.1786C0.842343 12.866 0.666748 12.4421 0.666748 12V2.00004ZM10.6667 11V2.00004C10.6667 1.82323 10.5965 1.65366 10.4715 1.52864C10.3465 1.40361 10.1769 1.33337 10.0001 1.33337H2.33341C2.1566 1.33337 1.98703 1.40361 1.86201 1.52864C1.73699 1.65366 1.66675 1.82323 1.66675 2.00004V11H10.6667Z" fill="#0B75FF"/>
</svg>
