<svg width="16" height="16" viewBox="0 0 16 16" fill="none" xmlns="http://www.w3.org/2000/svg">
<g clip-path="url(#clip0_5213_8292)">
<path d="M8.83342 4.66671C8.83342 4.84352 8.76318 5.01309 8.63815 5.13811C8.51313 5.26314 8.34356 5.33337 8.16675 5.33337C7.98994 5.33337 7.82037 5.26314 7.69534 5.13811C7.57032 5.01309 7.50008 4.84352 7.50008 4.66671C7.50008 4.4899 7.57032 4.32033 7.69534 4.1953C7.82037 4.07028 7.98994 4.00004 8.16675 4.00004C8.34356 4.00004 8.51313 4.07028 8.63815 4.1953C8.76318 4.32033 8.83342 4.4899 8.83342 4.66671ZM7.66675 6.50004V9.83337C7.66675 9.96598 7.71943 10.0932 7.8132 10.1869C7.90696 10.2807 8.03414 10.3334 8.16675 10.3334C8.29936 10.3334 8.42653 10.2807 8.5203 10.1869C8.61407 10.0932 8.66675 9.96598 8.66675 9.83337V6.50004C8.66675 6.36743 8.61407 6.24026 8.5203 6.14649C8.42653 6.05272 8.29936 6.00004 8.16675 6.00004C8.03414 6.00004 7.90696 6.05272 7.8132 6.14649C7.71943 6.24026 7.66675 6.36743 7.66675 6.50004ZM2.66675 3.00004C2.66675 2.55801 2.84234 2.13409 3.1549 1.82153C3.46746 1.50897 3.89139 1.33337 4.33341 1.33337H12.0001C12.219 1.33337 12.4357 1.37648 12.6379 1.46024C12.8401 1.544 13.0238 1.66677 13.1786 1.82153C13.3334 1.97629 13.4561 2.16003 13.5399 2.36223C13.6236 2.56444 13.6667 2.78117 13.6667 3.00004V12.5C13.6667 12.6326 13.6141 12.7598 13.5203 12.8536C13.4265 12.9474 13.2994 13 13.1667 13H3.66675C3.66675 13.1769 3.73699 13.3464 3.86201 13.4714C3.98703 13.5965 4.1566 13.6667 4.33341 13.6667H13.1667C13.2994 13.6667 13.4265 13.7194 13.5203 13.8132C13.6141 13.9069 13.6667 14.0341 13.6667 14.1667C13.6667 14.2993 13.6141 14.4265 13.5203 14.5203C13.4265 14.614 13.2994 14.6667 13.1667 14.6667H4.33341C3.89139 14.6667 3.46746 14.4911 3.1549 14.1786C2.84234 13.866 2.66675 13.4421 2.66675 13V3.00004ZM12.6667 12V3.00004C12.6667 2.82323 12.5965 2.65366 12.4715 2.52864C12.3465 2.40361 12.1769 2.33337 12.0001 2.33337H4.33341C4.1566 2.33337 3.98703 2.40361 3.86201 2.52864C3.73699 2.65366 3.66675 2.82323 3.66675 3.00004V12H12.6667Z" fill="#0B75FF"/>
</g>
<defs>
<clipPath id="clip0_5213_8292">
<rect width="16" height="16" fill="white"/>
</clipPath>
</defs>
</svg>
