<svg width="16" height="16" viewBox="0 0 16 16" fill="none" xmlns="http://www.w3.org/2000/svg">
<path d="M4.68359 4.17171C4.68359 4.52028 4.82206 4.85457 5.06854 5.10105C5.31502 5.34752 5.64931 5.48599 5.99788 5.48599C6.34645 5.48599 6.68074 5.34752 6.92722 5.10105C7.1737 4.85457 7.31216 4.52028 7.31216 4.17171C7.31216 3.82314 7.1737 3.48884 6.92722 3.24237C6.68074 2.99589 6.34645 2.85742 5.99788 2.85742C5.64931 2.85742 5.31502 2.99589 5.06854 3.24237C4.82206 3.48884 4.68359 3.82314 4.68359 4.17171Z" stroke="#565555" stroke-linecap="round" stroke-linejoin="round"/>
<path d="M4 6.78885C4.19729 6.40297 4.49098 6.07463 4.85257 5.83571C5.20229 5.60714 5.59771 5.48828 5.99886 5.48828C6.4 5.48828 6.79543 5.60714 7.14514 5.83571C7.496 6.06314 7.78857 6.39114 7.99771 6.78885" stroke="#565555" stroke-linecap="round" stroke-linejoin="round"/>
<path d="M14.2858 14.2856C14.2858 14.5887 14.1654 14.8794 13.951 15.0937C13.7367 15.308 13.446 15.4284 13.1429 15.4284H2.85721C2.55411 15.4284 2.26342 15.308 2.04909 15.0937C1.83476 14.8794 1.71436 14.5887 1.71436 14.2856V1.71415C1.71436 1.41104 1.83476 1.12035 2.04909 0.906024C2.26342 0.691697 2.55411 0.571289 2.85721 0.571289H10.2858L14.2858 4.57129V14.2856Z" stroke="#565555" stroke-linecap="round" stroke-linejoin="round"/>
<path d="M4 9.71387H12M4 12.571H8.57143" stroke="#565555" stroke-linecap="round"/>
</svg>
