<svg width="14" height="14" viewBox="0 0 14 14" fill="none" xmlns="http://www.w3.org/2000/svg">
<path d="M1.35 4.5V4.65H1.5H4.5H4.65V4.5V1.5V1.35H4.5H1.5H1.35V1.5V4.5ZM1.5 9.35H1.35V9.5V12.5V12.65H1.5H4.5H4.65V12.5V9.5V9.35H4.5H1.5ZM0.15 1C0.15 0.774566 0.239553 0.558365 0.398959 0.398959C0.558365 0.239553 0.774566 0.15 1 0.15H5C5.22543 0.15 5.44163 0.239553 5.60104 0.398959C5.76045 0.558365 5.85 0.774566 5.85 1V5C5.85 5.22543 5.76045 5.44163 5.60104 5.60104C5.44163 5.76045 5.22543 5.85 5 5.85H1C0.774566 5.85 0.558365 5.76045 0.398959 5.60104C0.239553 5.44163 0.15 5.22543 0.15 5V1ZM8.15 1.25C8.15 1.09087 8.21321 0.938258 8.32574 0.825736C8.43826 0.713214 8.59087 0.65 8.75 0.65H13.25C13.4091 0.65 13.5617 0.713214 13.6743 0.825736C13.7868 0.938258 13.85 1.09087 13.85 1.25C13.85 1.40913 13.7868 1.56174 13.6743 1.67426C13.5617 1.78679 13.4091 1.85 13.25 1.85H8.75C8.59087 1.85 8.43826 1.78679 8.32574 1.67426C8.21321 1.56174 8.15 1.40913 8.15 1.25ZM8.32574 4.32574C8.43826 4.21321 8.59087 4.15 8.75 4.15H13.25C13.4091 4.15 13.5617 4.21321 13.6743 4.32574C13.7868 4.43826 13.85 4.59087 13.85 4.75C13.85 4.90913 13.7868 5.06174 13.6743 5.17426C13.5617 5.28679 13.4091 5.35 13.25 5.35H8.75C8.59087 5.35 8.43826 5.28679 8.32574 5.17426C8.21321 5.06174 8.15 4.90913 8.15 4.75C8.15 4.59087 8.21321 4.43826 8.32574 4.32574ZM0.398959 8.39896C0.558365 8.23955 0.774566 8.15 1 8.15H5C5.22543 8.15 5.44163 8.23955 5.60104 8.39896C5.76045 8.55836 5.85 8.77457 5.85 9V13C5.85 13.2254 5.76045 13.4416 5.60104 13.601C5.44163 13.7604 5.22543 13.85 5 13.85H1C0.774566 13.85 0.558365 13.7604 0.398959 13.601C0.239553 13.4416 0.15 13.2254 0.15 13V9C0.15 8.77457 0.239553 8.55836 0.398959 8.39896ZM8.32574 8.82574C8.43826 8.71321 8.59087 8.65 8.75 8.65H13.25C13.4091 8.65 13.5617 8.71321 13.6743 8.82574C13.7868 8.93826 13.85 9.09087 13.85 9.25C13.85 9.40913 13.7868 9.56174 13.6743 9.67426C13.5617 9.78679 13.4091 9.85 13.25 9.85H8.75C8.59087 9.85 8.43826 9.78679 8.32574 9.67426C8.21321 9.56174 8.15 9.40913 8.15 9.25C8.15 9.09087 8.21321 8.93826 8.32574 8.82574ZM8.32574 12.3257C8.43826 12.2132 8.59087 12.15 8.75 12.15H13.25C13.4091 12.15 13.5617 12.2132 13.6743 12.3257C13.7868 12.4383 13.85 12.5909 13.85 12.75C13.85 12.9091 13.7868 13.0617 13.6743 13.1743C13.5617 13.2868 13.4091 13.35 13.25 13.35H8.75C8.59087 13.35 8.43826 13.2868 8.32574 13.1743C8.21321 13.0617 8.15 12.9091 8.15 12.75C8.15 12.5909 8.21321 12.4383 8.32574 12.3257Z" fill="#565555" stroke="white" stroke-width="0.3"/>
</svg>
