<svg width="25" height="25" viewBox="0 0 25 25" fill="none" xmlns="http://www.w3.org/2000/svg">
<path d="M12.1312 18.7501C12.1312 18.8882 12.0764 19.0207 11.9787 19.1184C11.881 19.216 11.7485 19.2709 11.6104 19.2709C7.79792 19.2709 4.6875 16.2511 4.6875 12.5001C4.6875 8.74904 7.79896 5.72925 11.6104 5.72925C14.949 5.72925 17.751 8.04696 18.3948 11.1438L19.3427 9.53966C19.4146 9.42437 19.5288 9.34176 19.6608 9.30946C19.7928 9.27716 19.9322 9.29774 20.0492 9.3668C20.1663 9.43585 20.2517 9.54792 20.2873 9.67908C20.3228 9.81025 20.3057 9.95011 20.2396 10.0688L18.5417 12.9397C18.4723 13.0567 18.3599 13.1419 18.2285 13.1772C18.0971 13.2124 17.9571 13.1948 17.8385 13.1282L14.8979 11.472C14.8383 11.4384 14.7858 11.3934 14.7436 11.3395C14.7013 11.2857 14.6701 11.224 14.6517 11.1581C14.6332 11.0922 14.628 11.0233 14.6362 10.9553C14.6444 10.8874 14.6659 10.8217 14.6995 10.7621C14.7331 10.7024 14.7781 10.65 14.8319 10.6077C14.8858 10.5655 14.9474 10.5342 15.0133 10.5158C15.0792 10.4974 15.1482 10.4921 15.2161 10.5003C15.2841 10.5085 15.3497 10.53 15.4094 10.5636L17.4354 11.7053C17.0396 8.92612 14.5917 6.77091 11.6104 6.77091C8.35 6.77091 5.72917 9.348 5.72917 12.5001C5.72917 15.6522 8.35 18.2292 11.6104 18.2292C11.7485 18.2292 11.881 18.2841 11.9787 18.3818C12.0764 18.4795 12.1312 18.6119 12.1312 18.7501Z" fill="#787878"/>
</svg>
