<svg width="14" height="14" viewBox="0 0 14 14" fill="none" xmlns="http://www.w3.org/2000/svg">
<path d="M12.9999 0.333496H0.999919C0.823108 0.333496 0.653538 0.403734 0.528514 0.528758C0.40349 0.653782 0.333252 0.823352 0.333252 1.00016V13.0002C0.333252 13.177 0.40349 13.3465 0.528514 13.4716C0.653538 13.5966 0.823108 13.6668 0.999919 13.6668H12.9999C13.1767 13.6668 13.3463 13.5966 13.4713 13.4716C13.5963 13.3465 13.6666 13.177 13.6666 13.0002V1.00016C13.6666 0.823352 13.5963 0.653782 13.4713 0.528758C13.3463 0.403734 13.1767 0.333496 12.9999 0.333496ZM4.33325 12.3335H1.66659V1.66683H4.33325V12.3335ZM12.3333 12.3335H5.66658V1.66683H12.3333V12.3335Z" fill="#565555"/>
</svg>
