<svg width="24" height="24" viewBox="0 0 24 24" fill="none" xmlns="http://www.w3.org/2000/svg">
<path d="M20.5442 12.5182L22.0132 13.8263C22.2845 14.0527 22.4658 14.3687 22.5242 14.7171C22.5826 15.0656 22.5144 15.4234 22.3317 15.7259L20.5605 18.7517C20.4231 18.9833 20.2269 19.1744 19.9917 19.3058C19.7539 19.4374 19.4868 19.5072 19.215 19.5089C19.0464 19.5099 18.8786 19.4847 18.7177 19.4342L16.8376 18.8134C16.5083 19.0247 16.166 19.2137 15.8106 19.3805L15.4157 21.2867C15.3427 21.6373 15.1474 21.9506 14.8649 22.1707C14.5787 22.3947 14.224 22.5129 13.8606 22.5054H10.193C9.82967 22.5129 9.4749 22.3947 9.18874 22.1707C8.90677 21.9503 8.71214 21.6371 8.6395 21.2867L8.243 19.3805C7.89232 19.2115 7.55209 19.0215 7.22412 18.8118L5.3375 19.4342C5.17663 19.4847 5.00887 19.5099 4.84025 19.5089C4.56897 19.507 4.30249 19.4371 4.06512 19.3058C3.83021 19.1749 3.63401 18.9843 3.49637 18.7533L1.66174 15.7259C1.47102 15.4207 1.39814 15.0564 1.45677 14.7013C1.5154 14.3462 1.70152 14.0247 1.98024 13.797L3.44762 11.9429V11.3677L1.97862 10.0595C1.70735 9.83316 1.52609 9.51714 1.46767 9.16869C1.40925 8.82023 1.47752 8.46238 1.66012 8.1599L3.49474 5.13415C3.63216 4.90254 3.82838 4.71137 4.06349 4.58003C4.30086 4.44868 4.56734 4.37885 4.83862 4.3769C5.00572 4.36636 5.17345 4.38171 5.33587 4.4224L7.18512 5.0724C7.51554 4.86115 7.85787 4.67211 8.21212 4.50528L8.60862 2.59915C8.68127 2.24875 8.8759 1.9355 9.15787 1.71515C9.44402 1.49114 9.79879 1.37288 10.1621 1.3804H13.7989C14.1622 1.37288 14.517 1.49114 14.8031 1.71515C15.0875 1.93778 15.2825 2.2514 15.3524 2.59915L15.7489 4.50528C16.101 4.6732 16.4406 4.86278 16.7677 5.07403L18.656 4.45328C18.8656 4.38511 19.087 4.36117 19.3063 4.38299C19.5256 4.40481 19.738 4.4719 19.93 4.58003C20.1656 4.71328 20.3606 4.90503 20.4987 5.13253L22.3317 8.1599C22.525 8.46252 22.6016 8.82512 22.5472 9.18005C22.4928 9.53498 22.3111 9.85799 22.036 10.0888L20.5442 11.3595V12.5182Z" stroke="#414554" stroke-width="1.77799"/>
<path d="M16.0625 11.9433C16.0625 13.0207 15.6345 14.054 14.8726 14.8159C14.1108 15.5777 13.0774 16.0058 12 16.0058C10.9226 16.0058 9.88925 15.5777 9.12738 14.8159C8.36551 14.054 7.9375 13.0207 7.9375 11.9433C7.9375 10.8658 8.36551 9.8325 9.12738 9.07063C9.88925 8.30876 10.9226 7.88075 12 7.88075C13.0774 7.88075 14.1108 8.30876 14.8726 9.07063C15.6345 9.8325 16.0625 10.8658 16.0625 11.9433Z" stroke="#414554" stroke-width="1.77799"/>
</svg>
