<svg width="22" height="19" viewBox="0 0 22 19" fill="none" xmlns="http://www.w3.org/2000/svg">
<path d="M20.75 17.6375C20.75 15.7504 18.9408 14.146 16.4167 13.5501M14.25 17.6375C14.25 15.2434 11.3402 13.3042 7.75 13.3042C4.15983 13.3042 1.25 15.2434 1.25 17.6375M14.25 10.0542C15.3993 10.0542 16.5015 9.59766 17.3141 8.785C18.1268 7.97234 18.5833 6.87014 18.5833 5.72087C18.5833 4.5716 18.1268 3.4694 17.3141 2.65674C16.5015 1.84408 15.3993 1.38754 14.25 1.38754M7.75 10.0542C6.60073 10.0542 5.49853 9.59766 4.68587 8.785C3.87321 7.97234 3.41667 6.87014 3.41667 5.72087C3.41667 4.5716 3.87321 3.4694 4.68587 2.65674C5.49853 1.84408 6.60073 1.38754 7.75 1.38754C8.89927 1.38754 10.0015 1.84408 10.8141 2.65674C11.6268 3.4694 12.0833 4.5716 12.0833 5.72087C12.0833 6.87014 11.6268 7.97234 10.8141 8.785C10.0015 9.59766 8.89927 10.0542 7.75 10.0542Z" stroke="#414554" stroke-width="1.82428" stroke-linecap="round" stroke-linejoin="round"/>
</svg>
