<svg width="15" height="18" viewBox="0 0 15 18" fill="none" xmlns="http://www.w3.org/2000/svg">
<path d="M13.4242 15.1871L13.3254 16.6711C13.3174 16.7791 13.2714 16.8808 13.1957 16.9581C13.1199 17.0355 13.0193 17.0835 12.9115 17.0937H2.12098C2.00686 17.0919 1.89753 17.0476 1.81436 16.9694C1.73118 16.8913 1.68015 16.7849 1.67123 16.6711L1.57236 15.1871C1.53537 14.6747 1.67157 14.1647 1.95911 13.739L5.16948 9C5.25498 8.87892 5.30088 8.73434 5.30088 8.58612C5.30088 8.43791 5.25498 8.29332 5.16948 8.17225L2.20061 4.23387C1.89654 3.82583 1.73235 3.33051 1.73248 2.82162V1.36475C1.73248 1.24315 1.78079 1.12653 1.86677 1.04054C1.95276 0.954556 2.06938 0.90625 2.19098 0.90625H12.8397C12.9612 0.906482 13.0776 0.95489 13.1634 1.04085C13.2492 1.12681 13.2974 1.2433 13.2974 1.36475V2.8225C13.2974 3.33087 13.1329 3.82612 12.8301 4.23475L9.88048 8.10225C9.79518 8.22324 9.74939 8.36765 9.74939 8.51569C9.74939 8.66372 9.79518 8.80813 9.88048 8.92912L13.055 13.704C13.3437 14.1415 13.4741 14.6665 13.4234 15.188M5.20448 14.3961H9.82711" stroke="#565555" stroke-width="1.5" stroke-linecap="round" stroke-linejoin="round"/>
</svg>
