<svg width="18" height="18" viewBox="0 0 18 18" fill="none" xmlns="http://www.w3.org/2000/svg">
<path d="M8.19938 1.00098H15.9551C16.5322 1.00098 16.9999 1.46863 16.9999 2.04582V10.3873C16.9999 10.9658 16.5322 11.4334 15.9551 11.4334H9.61465M4.26 5.30957C4.83135 5.30957 5.37931 5.0826 5.78331 4.67859C6.18732 4.27458 6.41429 3.72663 6.41429 3.15527C6.41429 2.58392 6.18732 2.03597 5.78331 1.63196C5.37931 1.22795 4.83135 1.00098 4.26 1.00098C3.68865 1.00098 3.1407 1.22795 2.73669 1.63196C2.33268 2.03597 2.10571 2.58392 2.10571 3.15527C2.10571 3.72663 2.33268 4.27458 2.73669 4.67859C3.1407 5.0826 3.68865 5.30957 4.26 5.30957Z" stroke="#565555" stroke-linecap="round" stroke-linejoin="round"/>
<path d="M11.4607 7.18773C11.4607 6.48994 10.8946 5.92383 10.1968 5.92383H4.26005C3.39553 5.92415 2.56651 6.26773 1.95521 6.87904C1.3439 7.49035 1.00033 8.31937 1 9.18389V12.0772H2.39681L2.86323 16.9999H5.65686L6.73 8.45287H10.1968C10.8946 8.45287 11.4607 7.88676 11.4607 7.18773Z" stroke="#565555" stroke-linecap="round" stroke-linejoin="round"/>
</svg>
