<svg width="24" height="23" viewBox="0 0 24 23" fill="none" xmlns="http://www.w3.org/2000/svg">
<path d="M4.5625 0.0815582C3.51821 0.0815582 2.51669 0.496401 1.77827 1.23483C1.03984 1.97325 0.625 2.97477 0.625 4.01906V18.8941C0.625 19.9383 1.03984 20.9399 1.77827 21.6783C2.51669 22.4167 3.51821 22.8316 4.5625 22.8316H19.4375C20.4818 22.8316 21.4833 22.4167 22.2217 21.6783C22.9602 20.9399 23.375 19.9383 23.375 18.8941V4.01906C23.375 2.97477 22.9602 1.97325 22.2217 1.23483C21.4833 0.496401 20.4818 0.0815582 19.4375 0.0815582H4.5625ZM2.375 4.01906C2.375 3.4389 2.60547 2.8825 3.0157 2.47226C3.42594 2.06203 3.98234 1.83156 4.5625 1.83156H19.4375C20.0177 1.83156 20.5741 2.06203 20.9843 2.47226C21.3945 2.8825 21.625 3.4389 21.625 4.01906V18.8941C21.625 19.4742 21.3945 20.0306 20.9843 20.4409C20.5741 20.8511 20.0177 21.0816 19.4375 21.0816H4.5625C3.98234 21.0816 3.42594 20.8511 3.0157 20.4409C2.60547 20.0306 2.375 19.4742 2.375 18.8941V4.01906ZM18.125 6.20656C18.125 5.97449 18.0328 5.75193 17.8687 5.58784C17.7046 5.42375 17.4821 5.33156 17.25 5.33156C17.0179 5.33156 16.7954 5.42375 16.6313 5.58784C16.4672 5.75193 16.375 5.97449 16.375 6.20656V16.7066C16.375 16.9386 16.4672 17.1612 16.6313 17.3253C16.7954 17.4894 17.0179 17.5816 17.25 17.5816C17.4821 17.5816 17.7046 17.4894 17.8687 17.3253C18.0328 17.1612 18.125 16.9386 18.125 16.7066V6.20656ZM12 11.4566C12.2321 11.4566 12.4546 11.5487 12.6187 11.7128C12.7828 11.8769 12.875 12.0995 12.875 12.3316V16.7066C12.875 16.9386 12.7828 17.1612 12.6187 17.3253C12.4546 17.4894 12.2321 17.5816 12 17.5816C11.7679 17.5816 11.5454 17.4894 11.3813 17.3253C11.2172 17.1612 11.125 16.9386 11.125 16.7066V12.3316C11.125 12.0995 11.2172 11.8769 11.3813 11.7128C11.5454 11.5487 11.7679 11.4566 12 11.4566ZM7.625 8.83156C7.625 8.59949 7.53281 8.37693 7.36872 8.21284C7.20462 8.04875 6.98206 7.95656 6.75 7.95656C6.51794 7.95656 6.29538 8.04875 6.13128 8.21284C5.96719 8.37693 5.875 8.59949 5.875 8.83156V16.7066C5.875 16.9386 5.96719 17.1612 6.13128 17.3253C6.29538 17.4894 6.51794 17.5816 6.75 17.5816C6.98206 17.5816 7.20462 17.4894 7.36872 17.3253C7.53281 17.1612 7.625 16.9386 7.625 16.7066V8.83156Z" fill="#414554"/>
</svg>
