<svg width="26" height="27" viewBox="0 0 26 27" fill="none" xmlns="http://www.w3.org/2000/svg">
<path d="M11.7928 1.41431H23.4965C24.3675 1.41431 25.0732 2.12002 25.0732 2.99102V15.5787C25.0732 16.4516 24.3675 17.1573 23.4965 17.1573H13.9285M5.8481 7.91616C6.7103 7.91616 7.53718 7.57366 8.14685 6.96399C8.75652 6.35432 9.09902 5.52744 9.09902 4.66524C9.09902 3.80304 8.75652 2.97615 8.14685 2.36648C7.53718 1.75681 6.7103 1.41431 5.8481 1.41431C4.9859 1.41431 4.15901 1.75681 3.54934 2.36648C2.93968 2.97615 2.59717 3.80304 2.59717 4.66524C2.59717 5.52744 2.93968 6.35432 3.54934 6.96399C4.15901 7.57366 4.9859 7.91616 5.8481 7.91616Z" stroke="#414554" stroke-width="1.80621" stroke-linecap="round" stroke-linejoin="round"/>
<path d="M16.7141 10.7503C16.7141 9.6973 15.8598 8.84302 14.8068 8.84302H5.84792C4.54332 8.84351 3.29229 9.36198 2.3698 10.2845C1.44731 11.207 0.928837 12.458 0.928345 13.7626V18.1287H3.0362L3.74006 25.5573H7.95577L9.5752 12.6594H14.8068C15.8598 12.6594 16.7141 11.8052 16.7141 10.7503Z" stroke="#414554" stroke-width="1.80621" stroke-linecap="round" stroke-linejoin="round"/>
</svg>
