<svg width="20" height="20" viewBox="0 0 20 20" fill="none" xmlns="http://www.w3.org/2000/svg">
<path d="M3.33331 15.0013C3.33331 14.1172 3.6845 13.2694 4.30962 12.6443C4.93474 12.0192 5.78259 11.668 6.66665 11.668H13.3333C14.2174 11.668 15.0652 12.0192 15.6903 12.6443C16.3155 13.2694 16.6666 14.1172 16.6666 15.0013C16.6666 15.4433 16.4911 15.8673 16.1785 16.1798C15.8659 16.4924 15.442 16.668 15 16.668H4.99998C4.55795 16.668 4.13403 16.4924 3.82147 16.1798C3.50891 15.8673 3.33331 15.4433 3.33331 15.0013Z" stroke="#292827" stroke-width="1.5" stroke-linejoin="round"/>
<path d="M10 8.33398C11.3807 8.33398 12.5 7.2147 12.5 5.83398C12.5 4.45327 11.3807 3.33398 10 3.33398C8.61929 3.33398 7.5 4.45327 7.5 5.83398C7.5 7.2147 8.61929 8.33398 10 8.33398Z" stroke="#292827" stroke-width="1.5"/>
</svg>
